<svg version="1.1" xmlns="http://www.w3.org/2000/svg" xmlns:xlink="http://www.w3.org/1999/xlink" width="796" height="740"><defs/><g><text fill="#eeeeee" stroke="none" font-family="Arial" font-size="24px" font-style="normal" font-weight="normal" text-decoration="none" x="0" y="0">UNREGISTERED</text><text fill="#eeeeee" stroke="none" font-family="Arial" font-size="24px" font-style="normal" font-weight="normal" text-decoration="none" x="0" y="30">UNREGISTERED</text><text fill="#eeeeee" stroke="none" font-family="Arial" font-size="24px" font-style="normal" font-weight="normal" text-decoration="none" x="0" y="60">UNREGISTERED</text><text fill="#eeeeee" stroke="none" font-family="Arial" font-size="24px" font-style="normal" font-weight="normal" text-decoration="none" x="0" y="90">UNREGISTERED</text><text fill="#eeeeee" stroke="none" font-family="Arial" font-size="24px" font-style="normal" font-weight="normal" text-decoration="none" x="0" y="120">UNREGISTERED</text><text fill="#eeeeee" stroke="none" font-family="Arial" font-size="24px" font-style="normal" font-weight="normal" text-decoration="none" x="0" y="150">UNREGISTERED</text><text fill="#eeeeee" stroke="none" font-family="Arial" font-size="24px" font-style="normal" font-weight="normal" text-decoration="none" x="0" y="180">UNREGISTERED</text><text fill="#eeeeee" stroke="none" font-family="Arial" font-size="24px" font-style="normal" font-weight="normal" text-decoration="none" x="0" y="210">UNREGISTERED</text><text fill="#eeeeee" stroke="none" font-family="Arial" font-size="24px" font-style="normal" font-weight="normal" text-decoration="none" x="0" y="240">UNREGISTERED</text><text fill="#eeeeee" stroke="none" font-family="Arial" font-size="24px" font-style="normal" font-weight="normal" text-decoration="none" x="0" y="270">UNREGISTERED</text><text fill="#eeeeee" stroke="none" font-family="Arial" font-size="24px" font-style="normal" font-weight="normal" text-decoration="none" x="0" y="300">UNREGISTERED</text><text fill="#eeeeee" stroke="none" font-family="Arial" font-size="24px" font-style="normal" font-weight="normal" text-decoration="none" x="0" y="330">UNREGISTERED</text><text fill="#eeeeee" stroke="none" font-family="Arial" font-size="24px" font-style="normal" font-weight="normal" text-decoration="none" x="0" y="360">UNREGISTERED</text><text fill="#eeeeee" stroke="none" font-family="Arial" font-size="24px" font-style="normal" font-weight="normal" text-decoration="none" x="0" y="390">UNREGISTERED</text><text fill="#eeeeee" stroke="none" font-family="Arial" font-size="24px" font-style="normal" font-weight="normal" text-decoration="none" x="0" y="420">UNREGISTERED</text><text fill="#eeeeee" stroke="none" font-family="Arial" font-size="24px" font-style="normal" font-weight="normal" text-decoration="none" x="0" y="450">UNREGISTERED</text><text fill="#eeeeee" stroke="none" font-family="Arial" font-size="24px" font-style="normal" font-weight="normal" text-decoration="none" x="0" y="480">UNREGISTERED</text><text fill="#eeeeee" stroke="none" font-family="Arial" font-size="24px" font-style="normal" font-weight="normal" text-decoration="none" x="0" y="510">UNREGISTERED</text><text fill="#eeeeee" stroke="none" font-family="Arial" font-size="24px" font-style="normal" font-weight="normal" text-decoration="none" x="0" y="540">UNREGISTERED</text><text fill="#eeeeee" stroke="none" font-family="Arial" font-size="24px" font-style="normal" font-weight="normal" text-decoration="none" x="0" y="570">UNREGISTERED</text><text fill="#eeeeee" stroke="none" font-family="Arial" font-size="24px" font-style="normal" font-weight="normal" text-decoration="none" x="0" y="600">UNREGISTERED</text><text fill="#eeeeee" stroke="none" font-family="Arial" font-size="24px" font-style="normal" font-weight="normal" text-decoration="none" x="0" y="630">UNREGISTERED</text><text fill="#eeeeee" stroke="none" font-family="Arial" font-size="24px" font-style="normal" font-weight="normal" text-decoration="none" x="0" y="660">UNREGISTERED</text><text fill="#eeeeee" stroke="none" font-family="Arial" font-size="24px" font-style="normal" font-weight="normal" text-decoration="none" x="0" y="690">UNREGISTERED</text><text fill="#eeeeee" stroke="none" font-family="Arial" font-size="24px" font-style="normal" font-weight="normal" text-decoration="none" x="0" y="720">UNREGISTERED</text><text fill="#eeeeee" stroke="none" font-family="Arial" font-size="24px" font-style="normal" font-weight="normal" text-decoration="none" x="200" y="0">UNREGISTERED</text><text fill="#eeeeee" stroke="none" font-family="Arial" font-size="24px" font-style="normal" font-weight="normal" text-decoration="none" x="200" y="30">UNREGISTERED</text><text fill="#eeeeee" stroke="none" font-family="Arial" font-size="24px" font-style="normal" font-weight="normal" text-decoration="none" x="200" y="60">UNREGISTERED</text><text fill="#eeeeee" stroke="none" font-family="Arial" font-size="24px" font-style="normal" font-weight="normal" text-decoration="none" x="200" y="90">UNREGISTERED</text><text fill="#eeeeee" stroke="none" font-family="Arial" font-size="24px" font-style="normal" font-weight="normal" text-decoration="none" x="200" y="120">UNREGISTERED</text><text fill="#eeeeee" stroke="none" font-family="Arial" font-size="24px" font-style="normal" font-weight="normal" text-decoration="none" x="200" y="150">UNREGISTERED</text><text fill="#eeeeee" stroke="none" font-family="Arial" font-size="24px" font-style="normal" font-weight="normal" text-decoration="none" x="200" y="180">UNREGISTERED</text><text fill="#eeeeee" stroke="none" font-family="Arial" font-size="24px" font-style="normal" font-weight="normal" text-decoration="none" x="200" y="210">UNREGISTERED</text><text fill="#eeeeee" stroke="none" font-family="Arial" font-size="24px" font-style="normal" font-weight="normal" text-decoration="none" x="200" y="240">UNREGISTERED</text><text fill="#eeeeee" stroke="none" font-family="Arial" font-size="24px" font-style="normal" font-weight="normal" text-decoration="none" x="200" y="270">UNREGISTERED</text><text fill="#eeeeee" stroke="none" font-family="Arial" font-size="24px" font-style="normal" font-weight="normal" text-decoration="none" x="200" y="300">UNREGISTERED</text><text fill="#eeeeee" stroke="none" font-family="Arial" font-size="24px" font-style="normal" font-weight="normal" text-decoration="none" x="200" y="330">UNREGISTERED</text><text fill="#eeeeee" stroke="none" font-family="Arial" font-size="24px" font-style="normal" font-weight="normal" text-decoration="none" x="200" y="360">UNREGISTERED</text><text fill="#eeeeee" stroke="none" font-family="Arial" font-size="24px" font-style="normal" font-weight="normal" text-decoration="none" x="200" y="390">UNREGISTERED</text><text fill="#eeeeee" stroke="none" font-family="Arial" font-size="24px" font-style="normal" font-weight="normal" text-decoration="none" x="200" y="420">UNREGISTERED</text><text fill="#eeeeee" stroke="none" font-family="Arial" font-size="24px" font-style="normal" font-weight="normal" text-decoration="none" x="200" y="450">UNREGISTERED</text><text fill="#eeeeee" stroke="none" font-family="Arial" font-size="24px" font-style="normal" font-weight="normal" text-decoration="none" x="200" y="480">UNREGISTERED</text><text fill="#eeeeee" stroke="none" font-family="Arial" font-size="24px" font-style="normal" font-weight="normal" text-decoration="none" x="200" y="510">UNREGISTERED</text><text fill="#eeeeee" stroke="none" font-family="Arial" font-size="24px" font-style="normal" font-weight="normal" text-decoration="none" x="200" y="540">UNREGISTERED</text><text fill="#eeeeee" stroke="none" font-family="Arial" font-size="24px" font-style="normal" font-weight="normal" text-decoration="none" x="200" y="570">UNREGISTERED</text><text fill="#eeeeee" stroke="none" font-family="Arial" font-size="24px" font-style="normal" font-weight="normal" text-decoration="none" x="200" y="600">UNREGISTERED</text><text fill="#eeeeee" stroke="none" font-family="Arial" font-size="24px" font-style="normal" font-weight="normal" text-decoration="none" x="200" y="630">UNREGISTERED</text><text fill="#eeeeee" stroke="none" font-family="Arial" font-size="24px" font-style="normal" font-weight="normal" text-decoration="none" x="200" y="660">UNREGISTERED</text><text fill="#eeeeee" stroke="none" font-family="Arial" font-size="24px" font-style="normal" font-weight="normal" text-decoration="none" x="200" y="690">UNREGISTERED</text><text fill="#eeeeee" stroke="none" font-family="Arial" font-size="24px" font-style="normal" font-weight="normal" text-decoration="none" x="200" y="720">UNREGISTERED</text><text fill="#eeeeee" stroke="none" font-family="Arial" font-size="24px" font-style="normal" font-weight="normal" text-decoration="none" x="400" y="0">UNREGISTERED</text><text fill="#eeeeee" stroke="none" font-family="Arial" font-size="24px" font-style="normal" font-weight="normal" text-decoration="none" x="400" y="30">UNREGISTERED</text><text fill="#eeeeee" stroke="none" font-family="Arial" font-size="24px" font-style="normal" font-weight="normal" text-decoration="none" x="400" y="60">UNREGISTERED</text><text fill="#eeeeee" stroke="none" font-family="Arial" font-size="24px" font-style="normal" font-weight="normal" text-decoration="none" x="400" y="90">UNREGISTERED</text><text fill="#eeeeee" stroke="none" font-family="Arial" font-size="24px" font-style="normal" font-weight="normal" text-decoration="none" x="400" y="120">UNREGISTERED</text><text fill="#eeeeee" stroke="none" font-family="Arial" font-size="24px" font-style="normal" font-weight="normal" text-decoration="none" x="400" y="150">UNREGISTERED</text><text fill="#eeeeee" stroke="none" font-family="Arial" font-size="24px" font-style="normal" font-weight="normal" text-decoration="none" x="400" y="180">UNREGISTERED</text><text fill="#eeeeee" stroke="none" font-family="Arial" font-size="24px" font-style="normal" font-weight="normal" text-decoration="none" x="400" y="210">UNREGISTERED</text><text fill="#eeeeee" stroke="none" font-family="Arial" font-size="24px" font-style="normal" font-weight="normal" text-decoration="none" x="400" y="240">UNREGISTERED</text><text fill="#eeeeee" stroke="none" font-family="Arial" font-size="24px" font-style="normal" font-weight="normal" text-decoration="none" x="400" y="270">UNREGISTERED</text><text fill="#eeeeee" stroke="none" font-family="Arial" font-size="24px" font-style="normal" font-weight="normal" text-decoration="none" x="400" y="300">UNREGISTERED</text><text fill="#eeeeee" stroke="none" font-family="Arial" font-size="24px" font-style="normal" font-weight="normal" text-decoration="none" x="400" y="330">UNREGISTERED</text><text fill="#eeeeee" stroke="none" font-family="Arial" font-size="24px" font-style="normal" font-weight="normal" text-decoration="none" x="400" y="360">UNREGISTERED</text><text fill="#eeeeee" stroke="none" font-family="Arial" font-size="24px" font-style="normal" font-weight="normal" text-decoration="none" x="400" y="390">UNREGISTERED</text><text fill="#eeeeee" stroke="none" font-family="Arial" font-size="24px" font-style="normal" font-weight="normal" text-decoration="none" x="400" y="420">UNREGISTERED</text><text fill="#eeeeee" stroke="none" font-family="Arial" font-size="24px" font-style="normal" font-weight="normal" text-decoration="none" x="400" y="450">UNREGISTERED</text><text fill="#eeeeee" stroke="none" font-family="Arial" font-size="24px" font-style="normal" font-weight="normal" text-decoration="none" x="400" y="480">UNREGISTERED</text><text fill="#eeeeee" stroke="none" font-family="Arial" font-size="24px" font-style="normal" font-weight="normal" text-decoration="none" x="400" y="510">UNREGISTERED</text><text fill="#eeeeee" stroke="none" font-family="Arial" font-size="24px" font-style="normal" font-weight="normal" text-decoration="none" x="400" y="540">UNREGISTERED</text><text fill="#eeeeee" stroke="none" font-family="Arial" font-size="24px" font-style="normal" font-weight="normal" text-decoration="none" x="400" y="570">UNREGISTERED</text><text fill="#eeeeee" stroke="none" font-family="Arial" font-size="24px" font-style="normal" font-weight="normal" text-decoration="none" x="400" y="600">UNREGISTERED</text><text fill="#eeeeee" stroke="none" font-family="Arial" font-size="24px" font-style="normal" font-weight="normal" text-decoration="none" x="400" y="630">UNREGISTERED</text><text fill="#eeeeee" stroke="none" font-family="Arial" font-size="24px" font-style="normal" font-weight="normal" text-decoration="none" x="400" y="660">UNREGISTERED</text><text fill="#eeeeee" stroke="none" font-family="Arial" font-size="24px" font-style="normal" font-weight="normal" text-decoration="none" x="400" y="690">UNREGISTERED</text><text fill="#eeeeee" stroke="none" font-family="Arial" font-size="24px" font-style="normal" font-weight="normal" text-decoration="none" x="400" y="720">UNREGISTERED</text><text fill="#eeeeee" stroke="none" font-family="Arial" font-size="24px" font-style="normal" font-weight="normal" text-decoration="none" x="600" y="0">UNREGISTERED</text><text fill="#eeeeee" stroke="none" font-family="Arial" font-size="24px" font-style="normal" font-weight="normal" text-decoration="none" x="600" y="30">UNREGISTERED</text><text fill="#eeeeee" stroke="none" font-family="Arial" font-size="24px" font-style="normal" font-weight="normal" text-decoration="none" x="600" y="60">UNREGISTERED</text><text fill="#eeeeee" stroke="none" font-family="Arial" font-size="24px" font-style="normal" font-weight="normal" text-decoration="none" x="600" y="90">UNREGISTERED</text><text fill="#eeeeee" stroke="none" font-family="Arial" font-size="24px" font-style="normal" font-weight="normal" text-decoration="none" x="600" y="120">UNREGISTERED</text><text fill="#eeeeee" stroke="none" font-family="Arial" font-size="24px" font-style="normal" font-weight="normal" text-decoration="none" x="600" y="150">UNREGISTERED</text><text fill="#eeeeee" stroke="none" font-family="Arial" font-size="24px" font-style="normal" font-weight="normal" text-decoration="none" x="600" y="180">UNREGISTERED</text><text fill="#eeeeee" stroke="none" font-family="Arial" font-size="24px" font-style="normal" font-weight="normal" text-decoration="none" x="600" y="210">UNREGISTERED</text><text fill="#eeeeee" stroke="none" font-family="Arial" font-size="24px" font-style="normal" font-weight="normal" text-decoration="none" x="600" y="240">UNREGISTERED</text><text fill="#eeeeee" stroke="none" font-family="Arial" font-size="24px" font-style="normal" font-weight="normal" text-decoration="none" x="600" y="270">UNREGISTERED</text><text fill="#eeeeee" stroke="none" font-family="Arial" font-size="24px" font-style="normal" font-weight="normal" text-decoration="none" x="600" y="300">UNREGISTERED</text><text fill="#eeeeee" stroke="none" font-family="Arial" font-size="24px" font-style="normal" font-weight="normal" text-decoration="none" x="600" y="330">UNREGISTERED</text><text fill="#eeeeee" stroke="none" font-family="Arial" font-size="24px" font-style="normal" font-weight="normal" text-decoration="none" x="600" y="360">UNREGISTERED</text><text fill="#eeeeee" stroke="none" font-family="Arial" font-size="24px" font-style="normal" font-weight="normal" text-decoration="none" x="600" y="390">UNREGISTERED</text><text fill="#eeeeee" stroke="none" font-family="Arial" font-size="24px" font-style="normal" font-weight="normal" text-decoration="none" x="600" y="420">UNREGISTERED</text><text fill="#eeeeee" stroke="none" font-family="Arial" font-size="24px" font-style="normal" font-weight="normal" text-decoration="none" x="600" y="450">UNREGISTERED</text><text fill="#eeeeee" stroke="none" font-family="Arial" font-size="24px" font-style="normal" font-weight="normal" text-decoration="none" x="600" y="480">UNREGISTERED</text><text fill="#eeeeee" stroke="none" font-family="Arial" font-size="24px" font-style="normal" font-weight="normal" text-decoration="none" x="600" y="510">UNREGISTERED</text><text fill="#eeeeee" stroke="none" font-family="Arial" font-size="24px" font-style="normal" font-weight="normal" text-decoration="none" x="600" y="540">UNREGISTERED</text><text fill="#eeeeee" stroke="none" font-family="Arial" font-size="24px" font-style="normal" font-weight="normal" text-decoration="none" x="600" y="570">UNREGISTERED</text><text fill="#eeeeee" stroke="none" font-family="Arial" font-size="24px" font-style="normal" font-weight="normal" text-decoration="none" x="600" y="600">UNREGISTERED</text><text fill="#eeeeee" stroke="none" font-family="Arial" font-size="24px" font-style="normal" font-weight="normal" text-decoration="none" x="600" y="630">UNREGISTERED</text><text fill="#eeeeee" stroke="none" font-family="Arial" font-size="24px" font-style="normal" font-weight="normal" text-decoration="none" x="600" y="660">UNREGISTERED</text><text fill="#eeeeee" stroke="none" font-family="Arial" font-size="24px" font-style="normal" font-weight="normal" text-decoration="none" x="600" y="690">UNREGISTERED</text><text fill="#eeeeee" stroke="none" font-family="Arial" font-size="24px" font-style="normal" font-weight="normal" text-decoration="none" x="600" y="720">UNREGISTERED</text><g transform="translate(-46,-102) scale(1,1)"><rect fill="#C0C0C0" stroke="none" x="207" y="119" width="632" height="720" opacity="0.2"/></g><g transform="translate(-46,-102) scale(1,1)"><rect fill="#ffffff" stroke="none" x="200" y="112" width="632" height="720"/></g><g transform="translate(-46,-102) scale(1,1)"><path fill="none" stroke="#000000" d="M 200 112 L 832 112 L 832 832 L 200 832 L 200 112 Z Z" stroke-miterlimit="10"/></g><g transform="translate(-46,-102) scale(1,1)"><g><path fill="none" stroke="none"/><text fill="#000000" stroke="none" font-family="Arial" font-size="13px" font-style="normal" font-weight="bold" text-decoration="none" x="435.44189453125" y="131.5">Master-details Resident Evil</text></g></g><g transform="translate(-46,-102) scale(1,1)"><path fill="#ffffff" stroke="none" d="M 72.40935031960227 441.68 C 72.40935031960227 436.886167936 76.29519264454773 433 81.088623046875 433 C 85.88205344920227 433 89.76789577414773 436.886167936 89.76789577414773 441.68 C 89.76789577414773 446.473832064 85.88205344920227 450.36 81.088623046875 450.36 C 76.29519264454773 450.36 72.40935031960227 446.473832064 72.40935031960227 441.68 Z"/></g><g transform="translate(-46,-102) scale(1,1)"><path fill="none" stroke="#000000" d="M 72.40935031960227 441.68 C 72.40935031960227 436.886167936 76.29519264454773 433 81.088623046875 433 C 85.88205344920227 433 89.76789577414773 436.886167936 89.76789577414773 441.68 C 89.76789577414773 446.473832064 85.88205344920227 450.36 81.088623046875 450.36 C 76.29519264454773 450.36 72.40935031960227 446.473832064 72.40935031960227 441.68 Z" stroke-miterlimit="10"/></g><g transform="translate(-46,-102) scale(1,1)"><path fill="none" stroke="#000000" d="M 81.088623046875 450.36 L 81.088623046875 467.64" stroke-miterlimit="10"/></g><g transform="translate(-46,-102) scale(1,1)"><path fill="none" stroke="#000000" d="M 71.89880486505682 456.84 L 90.27844122869318 456.84" stroke-miterlimit="10"/></g><g transform="translate(-46,-102) scale(1,1)"><path fill="none" stroke="#000000" d="M 81.088623046875 467.64 L 68.32498668323863 485" stroke-miterlimit="10"/></g><g transform="translate(-46,-102) scale(1,1)"><path fill="none" stroke="#000000" d="M 81.088623046875 467.64 L 93.85225941051137 485" stroke-miterlimit="10"/></g><g transform="translate(-46,-102) scale(1,1)"><g><path fill="none" stroke="none"/><text fill="#000000" stroke="none" font-family="Arial" font-size="13px" font-style="normal" font-weight="bold" text-decoration="none" x="64.470458984375" y="505.5">Client</text></g></g><g transform="translate(-46,-102) scale(1,1)"><path fill="#C0C0C0" stroke="none" d="M 247 299 C 247 283.5360256 281.0263552 271 323 271 C 364.9736448 271 399 283.5360256 399 299 C 399 314.4639744 364.9736448 327 323 327 C 281.0263552 327 247 314.4639744 247 299 Z" opacity="0.2"/></g><g transform="translate(-46,-102) scale(1,1)"><path fill="#ffffff" stroke="none" d="M 240 292 C 240 276.5360256 274.0263552 264 316 264 C 357.9736448 264 392 276.5360256 392 292 C 392 307.4639744 357.9736448 320 316 320 C 274.0263552 320 240 307.4639744 240 292 Z"/></g><g transform="translate(-46,-102) scale(1,1)"><path fill="none" stroke="#000000" d="M 240 292 C 240 276.5360256 274.0263552 264 316 264 C 357.9736448 264 392 276.5360256 392 292 C 392 307.4639744 357.9736448 320 316 320 C 274.0263552 320 240 307.4639744 240 292 Z" stroke-miterlimit="10"/></g><g transform="translate(-46,-102) scale(1,1)"><g><path fill="none" stroke="none"/><text fill="#000000" stroke="none" font-family="Arial" font-size="13px" font-style="normal" font-weight="bold" text-decoration="none" x="290.70458984375" y="292.5">faire une</text><text fill="#000000" stroke="none" font-family="Arial" font-size="13px" font-style="normal" font-weight="bold" text-decoration="none" x="287.095947265625" y="305.5">recherche</text></g></g><g transform="translate(-46,-102) scale(1,1)"><path fill="#C0C0C0" stroke="none" d="M 239 458.5 C 239 434.4756112 271.2354944 415 311 415 C 350.7645056 415 383 434.4756112 383 458.5 C 383 482.5243888 350.7645056 502 311 502 C 271.2354944 502 239 482.5243888 239 458.5 Z" opacity="0.2"/></g><g transform="translate(-46,-102) scale(1,1)"><path fill="#ffffff" stroke="none" d="M 232 451.5 C 232 427.4756112 264.2354944 408 304 408 C 343.7645056 408 376 427.4756112 376 451.5 C 376 475.5243888 343.7645056 495 304 495 C 264.2354944 495 232 475.5243888 232 451.5 Z"/></g><g transform="translate(-46,-102) scale(1,1)"><path fill="none" stroke="#000000" d="M 232 451.5 C 232 427.4756112 264.2354944 408 304 408 C 343.7645056 408 376 427.4756112 376 451.5 C 376 475.5243888 343.7645056 495 304 495 C 264.2354944 495 232 475.5243888 232 451.5 Z" stroke-miterlimit="10"/></g><g transform="translate(-46,-102) scale(1,1)"><g><path fill="none" stroke="none"/><text fill="#000000" stroke="none" font-family="Arial" font-size="13px" font-style="normal" font-weight="bold" text-decoration="none" x="272.56640625" y="452">choisir une</text><text fill="#000000" stroke="none" font-family="Arial" font-size="13px" font-style="normal" font-weight="bold" text-decoration="none" x="277.260498046875" y="465">catégorie</text></g></g><g transform="translate(-46,-102) scale(1,1)"><path fill="#C0C0C0" stroke="none" d="M 447 465 C 447 450.6405952 486.8466528 439 536 439 C 585.1533472 439 625 450.6405952 625 465 C 625 479.3594048 585.1533472 491 536 491 C 486.8466528 491 447 479.3594048 447 465 Z" opacity="0.2"/></g><g transform="translate(-46,-102) scale(1,1)"><path fill="#ffffff" stroke="none" d="M 440 458 C 440 443.6405952 479.8466528 432 529 432 C 578.1533472 432 618 443.6405952 618 458 C 618 472.3594048 578.1533472 484 529 484 C 479.8466528 484 440 472.3594048 440 458 Z"/></g><g transform="translate(-46,-102) scale(1,1)"><path fill="none" stroke="#000000" d="M 440 458 C 440 443.6405952 479.8466528 432 529 432 C 578.1533472 432 618 443.6405952 618 458 C 618 472.3594048 578.1533472 484 529 484 C 479.8466528 484 440 472.3594048 440 458 Z" stroke-miterlimit="10"/></g><g transform="translate(-46,-102) scale(1,1)"><g><path fill="none" stroke="none"/><text fill="#000000" stroke="none" font-family="Arial" font-size="13px" font-style="normal" font-weight="bold" text-decoration="none" x="499.7373046875" y="458.5">Choisir un</text><text fill="#000000" stroke="none" font-family="Arial" font-size="13px" font-style="normal" font-weight="bold" text-decoration="none" x="505.87548828125" y="471.5">élément</text></g></g><g transform="translate(-46,-102) scale(1,1)"><path fill="none" stroke="#000000" d="M 107 451 L 278 321" stroke-miterlimit="10"/></g><g transform="translate(-46,-102) scale(1,1)"><path fill="none" stroke="#000000" d="M 231 458 L 107 469" stroke-miterlimit="10"/></g><g transform="translate(-46,-102) scale(1,1)"><path fill="none" stroke="#000000" d="M 494 431 L 353 321" stroke-miterlimit="10" stroke-dasharray="3"/></g><g transform="translate(-46,-102) scale(1,1)"><path fill="none" stroke="#000000" d="M 363.6020213172739 323.9320886732957 L 353 321 L 358.42346138380105 330.5700609516564" stroke-miterlimit="10"/></g><g transform="translate(-46,-102) scale(1,1)"><g><path fill="none" stroke="none"/><text fill="#000000" stroke="none" font-family="Arial" font-size="13px" font-style="normal" font-weight="normal" text-decoration="none" x="377.5" y="405.5">«extend»</text></g></g><g transform="translate(-46,-102) scale(1,1)"><path fill="#C0C0C0" stroke="none" d="M 599 578.5 C 599 563.312168 647.129384 551 706.5 551 C 765.870616 551 814 563.312168 814 578.5 C 814 593.687832 765.870616 606 706.5 606 C 647.129384 606 599 593.687832 599 578.5 Z" opacity="0.2"/></g><g transform="translate(-46,-102) scale(1,1)"><path fill="#ffffff" stroke="none" d="M 592 571.5 C 592 556.312168 640.129384 544 699.5 544 C 758.870616 544 807 556.312168 807 571.5 C 807 586.687832 758.870616 599 699.5 599 C 640.129384 599 592 586.687832 592 571.5 Z"/></g><g transform="translate(-46,-102) scale(1,1)"><path fill="none" stroke="#000000" d="M 592 571.5 C 592 556.312168 640.129384 544 699.5 544 C 758.870616 544 807 556.312168 807 571.5 C 807 586.687832 758.870616 599 699.5 599 C 640.129384 599 592 586.687832 592 571.5 Z" stroke-miterlimit="10"/></g><g transform="translate(-46,-102) scale(1,1)"><g><path fill="none" stroke="none"/><text fill="#000000" stroke="none" font-family="Arial" font-size="13px" font-style="normal" font-weight="bold" text-decoration="none" x="640.971435546875" y="572">Pouvoir regarder les</text><text fill="#000000" stroke="none" font-family="Arial" font-size="13px" font-style="normal" font-weight="bold" text-decoration="none" x="680.7109375" y="585">details</text></g></g><g transform="translate(-46,-102) scale(1,1)"><path fill="none" stroke="#000000" d="M 657 543 L 570 485" stroke-miterlimit="10" stroke-dasharray="3"/></g><g transform="translate(-46,-102) scale(1,1)"><path fill="none" stroke="#000000" d="M 580.7908769318217 487.13470724978384 L 570 485 L 576.1208362812703 494.1397682256108" stroke-miterlimit="10"/></g><g transform="translate(-46,-102) scale(1,1)"><g><path fill="none" stroke="none"/><text fill="#000000" stroke="none" font-family="Arial" font-size="13px" font-style="normal" font-weight="normal" text-decoration="none" x="568.5" y="544.5">«include»</text></g></g><g transform="translate(-46,-102) scale(1,1)"><path fill="none" stroke="#000000" d="M 439 455 L 377 453" stroke-miterlimit="10" stroke-dasharray="3"/></g><g transform="translate(-46,-102) scale(1,1)"><path fill="none" stroke="#000000" d="M 387.29311172831143 449.1203284999246 L 377 453 L 387.0216711290793 457.5349870761203" stroke-miterlimit="10"/></g><g transform="translate(-46,-102) scale(1,1)"><g><path fill="none" stroke="none"/><text fill="#000000" stroke="none" font-family="Arial" font-size="13px" font-style="normal" font-weight="normal" text-decoration="none" x="380.5" y="489.5">«extend»</text></g></g><g transform="translate(-46,-102) scale(1,1)"><path fill="#C0C0C0" stroke="none" d="M 407 722.5 C 407 698.4756112 457.1441024 679 519 679 C 580.8558976 679 631 698.4756112 631 722.5 C 631 746.5243888 580.8558976 766 519 766 C 457.1441024 766 407 746.5243888 407 722.5 Z" opacity="0.2"/></g><g transform="translate(-46,-102) scale(1,1)"><path fill="#ffffff" stroke="none" d="M 400 715.5 C 400 691.4756112 450.1441024 672 512 672 C 573.8558976 672 624 691.4756112 624 715.5 C 624 739.5243888 573.8558976 759 512 759 C 450.1441024 759 400 739.5243888 400 715.5 Z"/></g><g transform="translate(-46,-102) scale(1,1)"><path fill="none" stroke="#000000" d="M 400 715.5 C 400 691.4756112 450.1441024 672 512 672 C 573.8558976 672 624 691.4756112 624 715.5 C 624 739.5243888 573.8558976 759 512 759 C 450.1441024 759 400 739.5243888 400 715.5 Z" stroke-miterlimit="10"/></g><g transform="translate(-46,-102) scale(1,1)"><g><path fill="none" stroke="none"/><text fill="#000000" stroke="none" font-family="Arial" font-size="13px" font-style="normal" font-weight="bold" text-decoration="none" x="445.52734375" y="716">Cliquer sur un lien vers</text><text fill="#000000" stroke="none" font-family="Arial" font-size="13px" font-style="normal" font-weight="bold" text-decoration="none" x="463.21826171875" y="729">un autre élément</text></g></g><g transform="translate(-46,-102) scale(1,1)"><path fill="none" stroke="#000000" d="M 569 671 L 661 600" stroke-miterlimit="10" stroke-dasharray="3"/></g><g transform="translate(-46,-102) scale(1,1)"><path fill="none" stroke="#000000" d="M 655.5264196651503 609.5414840731381 L 661 600 L 650.3827461371591 602.8764423185579" stroke-miterlimit="10"/></g><g transform="translate(-46,-102) scale(1,1)"><g><path fill="none" stroke="none"/><text fill="#000000" stroke="none" font-family="Arial" font-size="13px" font-style="normal" font-weight="normal" text-decoration="none" x="570.5" y="641.5">«extend»</text></g></g><g transform="translate(-46,-102) scale(1,1)"><path fill="#C0C0C0" stroke="none" d="M 663 262.5 C 663 236.266472 698.817216 215 743 215 C 787.182784 215 823 236.266472 823 262.5 C 823 288.733528 787.182784 310 743 310 C 698.817216 310 663 288.733528 663 262.5 Z" opacity="0.2"/></g><g transform="translate(-46,-102) scale(1,1)"><path fill="#ffffff" stroke="none" d="M 656 255.5 C 656 229.266472 691.817216 208 736 208 C 780.182784 208 816 229.266472 816 255.5 C 816 281.733528 780.182784 303 736 303 C 691.817216 303 656 281.733528 656 255.5 Z"/></g><g transform="translate(-46,-102) scale(1,1)"><path fill="none" stroke="#000000" d="M 656 255.5 C 656 229.266472 691.817216 208 736 208 C 780.182784 208 816 229.266472 816 255.5 C 816 281.733528 780.182784 303 736 303 C 691.817216 303 656 281.733528 656 255.5 Z" stroke-miterlimit="10"/></g><g transform="translate(-46,-102) scale(1,1)"><g><path fill="none" stroke="none"/><text fill="#000000" stroke="none" font-family="Arial" font-size="13px" font-style="normal" font-weight="bold" text-decoration="none" x="687.5927734375" y="262.5">Mettre en favoris</text></g></g><g transform="translate(-46,-102) scale(1,1)"><path fill="none" stroke="#000000" d="M 686 304 L 557 431" stroke-miterlimit="10" stroke-dasharray="3"/></g><g transform="translate(-46,-102) scale(1,1)"><path fill="none" stroke="#000000" d="M 561.2887827720749 420.870521122291 L 557 431 L 567.1952505854841 426.87000417685624" stroke-miterlimit="10"/></g><g transform="translate(-46,-102) scale(1,1)"><g><path fill="none" stroke="none"/><text fill="#000000" stroke="none" font-family="Arial" font-size="13px" font-style="normal" font-weight="normal" text-decoration="none" x="621.5" y="369.5">«extend»</text></g></g><g transform="translate(-46,-102) scale(1,1)"><path fill="#C0C0C0" stroke="none" d="M 255 618.5 C 255 594.4756112 288.1309248 575 329 575 C 369.8690752 575 403 594.4756112 403 618.5 C 403 642.5243888 369.8690752 662 329 662 C 288.1309248 662 255 642.5243888 255 618.5 Z" opacity="0.2"/></g><g transform="translate(-46,-102) scale(1,1)"><path fill="#ffffff" stroke="none" d="M 248 611.5 C 248 587.4756112 281.1309248 568 322 568 C 362.8690752 568 396 587.4756112 396 611.5 C 396 635.5243888 362.8690752 655 322 655 C 281.1309248 655 248 635.5243888 248 611.5 Z"/></g><g transform="translate(-46,-102) scale(1,1)"><path fill="none" stroke="#000000" d="M 248 611.5 C 248 587.4756112 281.1309248 568 322 568 C 362.8690752 568 396 587.4756112 396 611.5 C 396 635.5243888 362.8690752 655 322 655 C 281.1309248 655 248 635.5243888 248 611.5 Z" stroke-miterlimit="10"/></g><g transform="translate(-46,-102) scale(1,1)"><g><path fill="none" stroke="none"/><text fill="#000000" stroke="none" font-family="Arial" font-size="13px" font-style="normal" font-weight="bold" text-decoration="none" x="278.655029296875" y="618.5">voir ses favoris</text></g></g><g transform="translate(-46,-102) scale(1,1)"><path fill="none" stroke="#000000" d="M 492 485 L 382 567" stroke-miterlimit="10" stroke-dasharray="3"/></g><g transform="translate(-46,-102) scale(1,1)"><path fill="none" stroke="#000000" d="M 387.63200068795123 557.5511604812592 L 382 567 L 392.66376437614264 564.3010873800526" stroke-miterlimit="10"/></g><g transform="translate(-46,-102) scale(1,1)"><g><path fill="none" stroke="none"/><text fill="#000000" stroke="none" font-family="Arial" font-size="13px" font-style="normal" font-weight="normal" text-decoration="none" x="427.5" y="556.5">«extend»</text></g></g><g transform="translate(-46,-102) scale(1,1)"><path fill="none" stroke="#000000" d="M 107 486 L 247 567" stroke-miterlimit="10"/></g><g transform="translate(-46,-102) scale(1,1)"><path fill="#C0C0C0" stroke="none" d="M 399 202.5 C 399 187.31216799999999 449.1441024 175 511 175 C 572.8558976 175 623 187.31216799999999 623 202.5 C 623 217.68783200000001 572.8558976 230 511 230 C 449.1441024 230 399 217.68783200000001 399 202.5 Z" opacity="0.2"/></g><g transform="translate(-46,-102) scale(1,1)"><path fill="#ffffff" stroke="none" d="M 392 195.5 C 392 180.31216799999999 442.1441024 168 504 168 C 565.8558976 168 616 180.31216799999999 616 195.5 C 616 210.68783200000001 565.8558976 223 504 223 C 442.1441024 223 392 210.68783200000001 392 195.5 Z"/></g><g transform="translate(-46,-102) scale(1,1)"><path fill="none" stroke="#000000" d="M 392 195.5 C 392 180.31216799999999 442.1441024 168 504 168 C 565.8558976 168 616 180.31216799999999 616 195.5 C 616 210.68783200000001 565.8558976 223 504 223 C 442.1441024 223 392 210.68783200000001 392 195.5 Z" stroke-miterlimit="10"/></g><g transform="translate(-46,-102) scale(1,1)"><g><path fill="none" stroke="none"/><text fill="#000000" stroke="none" font-family="Arial" font-size="13px" font-style="normal" font-weight="bold" text-decoration="none" x="437.12109375" y="196">Afficher l'erreur aucune</text><text fill="#000000" stroke="none" font-family="Arial" font-size="13px" font-style="normal" font-weight="bold" text-decoration="none" x="485.569580078125" y="209">entrée</text></g></g><g transform="translate(-46,-102) scale(1,1)"><path fill="none" stroke="#000000" d="M 448 224 L 372 263" stroke-miterlimit="10" stroke-dasharray="3"/></g><g transform="translate(-46,-102) scale(1,1)"><path fill="none" stroke="#000000" d="M 379.1198131969291 254.61499791050508 L 372 263 L 382.96356003007526 262.1053763545848" stroke-miterlimit="10"/></g><g transform="translate(-46,-102) scale(1,1)"><g><path fill="none" stroke="none"/><text fill="#000000" stroke="none" font-family="Arial" font-size="13px" font-style="normal" font-weight="normal" text-decoration="none" x="407.5" y="258.5">«extend»</text></g></g></g></svg>