<svg version="1.1" xmlns="http://www.w3.org/2000/svg" xmlns:xlink="http://www.w3.org/1999/xlink" width="796" height="740"><defs/><g><text fill="#eeeeee" stroke="none" font-family="Arial" font-size="24px" font-style="normal" font-weight="normal" text-decoration="none" x="0" y="0">UNREGISTERED</text><text fill="#eeeeee" stroke="none" font-family="Arial" font-size="24px" font-style="normal" font-weight="normal" text-decoration="none" x="0" y="30">UNREGISTERED</text><text fill="#eeeeee" stroke="none" font-family="Arial" font-size="24px" font-style="normal" font-weight="normal" text-decoration="none" x="0" y="60">UNREGISTERED</text><text fill="#eeeeee" stroke="none" font-family="Arial" font-size="24px" font-style="normal" font-weight="normal" text-decoration="none" x="0" y="90">UNREGISTERED</text><text fill="#eeeeee" stroke="none" font-family="Arial" font-size="24px" font-style="normal" font-weight="normal" text-decoration="none" x="0" y="120">UNREGISTERED</text><text fill="#eeeeee" stroke="none" font-family="Arial" font-size="24px" font-style="normal" font-weight="normal" text-decoration="none" x="0" y="150">UNREGISTERED</text><text fill="#eeeeee" stroke="none" font-family="Arial" font-size="24px" font-style="normal" font-weight="normal" text-decoration="none" x="0" y="180">UNREGISTERED</text><text fill="#eeeeee" stroke="none" font-family="Arial" font-size="24px" font-style="normal" font-weight="normal" text-decoration="none" x="0" y="210">UNREGISTERED</text><text fill="#eeeeee" stroke="none" font-family="Arial" font-size="24px" font-style="normal" font-weight="normal" text-decoration="none" x="0" y="240">UNREGISTERED</text><text fill="#eeeeee" stroke="none" font-family="Arial" font-size="24px" font-style="normal" font-weight="normal" text-decoration="none" x="0" y="270">UNREGISTERED</text><text fill="#eeeeee" stroke="none" font-family="Arial" font-size="24px" font-style="normal" font-weight="normal" text-decoration="none" x="0" y="300">UNREGISTERED</text><text fill="#eeeeee" stroke="none" font-family="Arial" font-size="24px" font-style="normal" font-weight="normal" text-decoration="none" x="0" y="330">UNREGISTERED</text><text fill="#eeeeee" stroke="none" font-family="Arial" font-size="24px" font-style="normal" font-weight="normal" text-decoration="none" x="0" y="360">UNREGISTERED</text><text fill="#eeeeee" stroke="none" font-family="Arial" font-size="24px" font-style="normal" font-weight="normal" text-decoration="none" x="0" y="390">UNREGISTERED</text><text fill="#eeeeee" stroke="none" font-family="Arial" font-size="24px" font-style="normal" font-weight="normal" text-decoration="none" x="0" y="420">UNREGISTERED</text><text fill="#eeeeee" stroke="none" font-family="Arial" font-size="24px" font-style="normal" font-weight="normal" text-decoration="none" x="0" y="450">UNREGISTERED</text><text fill="#eeeeee" stroke="none" font-family="Arial" font-size="24px" font-style="normal" font-weight="normal" text-decoration="none" x="0" y="480">UNREGISTERED</text><text fill="#eeeeee" stroke="none" font-family="Arial" font-size="24px" font-style="normal" font-weight="normal" text-decoration="none" x="0" y="510">UNREGISTERED</text><text fill="#eeeeee" stroke="none" font-family="Arial" font-size="24px" font-style="normal" font-weight="normal" text-decoration="none" x="0" y="540">UNREGISTERED</text><text fill="#eeeeee" stroke="none" font-family="Arial" font-size="24px" font-style="normal" font-weight="normal" text-decoration="none" x="0" y="570">UNREGISTERED</text><text fill="#eeeeee" stroke="none" font-family="Arial" font-size="24px" font-style="normal" font-weight="normal" text-decoration="none" x="0" y="600">UNREGISTERED</text><text fill="#eeeeee" stroke="none" font-family="Arial" font-size="24px" font-style="normal" font-weight="normal" text-decoration="none" x="0" y="630">UNREGISTERED</text><text fill="#eeeeee" stroke="none" font-family="Arial" font-size="24px" font-style="normal" font-weight="normal" text-decoration="none" x="0" y="660">UNREGISTERED</text><text fill="#eeeeee" stroke="none" font-family="Arial" font-size="24px" font-style="normal" font-weight="normal" text-decoration="none" x="0" y="690">UNREGISTERED</text><text fill="#eeeeee" stroke="none" font-family="Arial" font-size="24px" font-style="normal" font-weight="normal" text-decoration="none" x="0" y="720">UNREGISTERED</text><text fill="#eeeeee" stroke="none" font-family="Arial" font-size="24px" font-style="normal" font-weight="normal" text-decoration="none" x="200" y="0">UNREGISTERED</text><text fill="#eeeeee" stroke="none" font-family="Arial" font-size="24px" font-style="normal" font-weight="normal" text-decoration="none" x="200" y="30">UNREGISTERED</text><text fill="#eeeeee" stroke="none" font-family="Arial" font-size="24px" font-style="normal" font-weight="normal" text-decoration="none" x="200" y="60">UNREGISTERED</text><text fill="#eeeeee" stroke="none" font-family="Arial" font-size="24px" font-style="normal" font-weight="normal" text-decoration="none" x="200" y="90">UNREGISTERED</text><text fill="#eeeeee" stroke="none" font-family="Arial" font-size="24px" font-style="normal" font-weight="normal" text-decoration="none" x="200" y="120">UNREGISTERED</text><text fill="#eeeeee" stroke="none" font-family="Arial" font-size="24px" font-style="normal" font-weight="normal" text-decoration="none" x="200" y="150">UNREGISTERED</text><text fill="#eeeeee" stroke="none" font-family="Arial" font-size="24px" font-style="normal" font-weight="normal" text-decoration="none" x="200" y="180">UNREGISTERED</text><text fill="#eeeeee" stroke="none" font-family="Arial" font-size="24px" font-style="normal" font-weight="normal" text-decoration="none" x="200" y="210">UNREGISTERED</text><text fill="#eeeeee" stroke="none" font-family="Arial" font-size="24px" font-style="normal" font-weight="normal" text-decoration="none" x="200" y="240">UNREGISTERED</text><text fill="#eeeeee" stroke="none" font-family="Arial" font-size="24px" font-style="normal" font-weight="normal" text-decoration="none" x="200" y="270">UNREGISTERED</text><text fill="#eeeeee" stroke="none" font-family="Arial" font-size="24px" font-style="normal" font-weight="normal" text-decoration="none" x="200" y="300">UNREGISTERED</text><text fill="#eeeeee" stroke="none" font-family="Arial" font-size="24px" font-style="normal" font-weight="normal" text-decoration="none" x="200" y="330">UNREGISTERED</text><text fill="#eeeeee" stroke="none" font-family="Arial" font-size="24px" font-style="normal" font-weight="normal" text-decoration="none" x="200" y="360">UNREGISTERED</text><text fill="#eeeeee" stroke="none" font-family="Arial" font-size="24px" font-style="normal" font-weight="normal" text-decoration="none" x="200" y="390">UNREGISTERED</text><text fill="#eeeeee" stroke="none" font-family="Arial" font-size="24px" font-style="normal" font-weight="normal" text-decoration="none" x="200" y="420">UNREGISTERED</text><text fill="#eeeeee" stroke="none" font-family="Arial" font-size="24px" font-style="normal" font-weight="normal" text-decoration="none" x="200" y="450">UNREGISTERED</text><text fill="#eeeeee" stroke="none" font-family="Arial" font-size="24px" font-style="normal" font-weight="normal" text-decoration="none" x="200" y="480">UNREGISTERED</text><text fill="#eeeeee" stroke="none" font-family="Arial" font-size="24px" font-style="normal" font-weight="normal" text-decoration="none" x="200" y="510">UNREGISTERED</text><text fill="#eeeeee" stroke="none" font-family="Arial" font-size="24px" font-style="normal" font-weight="normal" text-decoration="none" x="200" y="540">UNREGISTERED</text><text fill="#eeeeee" stroke="none" font-family="Arial" font-size="24px" font-style="normal" font-weight="normal" text-decoration="none" x="200" y="570">UNREGISTERED</text><text fill="#eeeeee" stroke="none" font-family="Arial" font-size="24px" font-style="normal" font-weight="normal" text-decoration="none" x="200" y="600">UNREGISTERED</text><text fill="#eeeeee" stroke="none" font-family="Arial" font-size="24px" font-style="normal" font-weight="normal" text-decoration="none" x="200" y="630">UNREGISTERED</text><text fill="#eeeeee" stroke="none" font-family="Arial" font-size="24px" font-style="normal" font-weight="normal" text-decoration="none" x="200" y="660">UNREGISTERED</text><text fill="#eeeeee" stroke="none" font-family="Arial" font-size="24px" font-style="normal" font-weight="normal" text-decoration="none" x="200" y="690">UNREGISTERED</text><text fill="#eeeeee" stroke="none" font-family="Arial" font-size="24px" font-style="normal" font-weight="normal" text-decoration="none" x="200" y="720">UNREGISTERED</text><text fill="#eeeeee" stroke="none" font-family="Arial" font-size="24px" font-style="normal" font-weight="normal" text-decoration="none" x="400" y="0">UNREGISTERED</text><text fill="#eeeeee" stroke="none" font-family="Arial" font-size="24px" font-style="normal" font-weight="normal" text-decoration="none" x="400" y="30">UNREGISTERED</text><text fill="#eeeeee" stroke="none" font-family="Arial" font-size="24px" font-style="normal" font-weight="normal" text-decoration="none" x="400" y="60">UNREGISTERED</text><text fill="#eeeeee" stroke="none" font-family="Arial" font-size="24px" font-style="normal" font-weight="normal" text-decoration="none" x="400" y="90">UNREGISTERED</text><text fill="#eeeeee" stroke="none" font-family="Arial" font-size="24px" font-style="normal" font-weight="normal" text-decoration="none" x="400" y="120">UNREGISTERED</text><text fill="#eeeeee" stroke="none" font-family="Arial" font-size="24px" font-style="normal" font-weight="normal" text-decoration="none" x="400" y="150">UNREGISTERED</text><text fill="#eeeeee" stroke="none" font-family="Arial" font-size="24px" font-style="normal" font-weight="normal" text-decoration="none" x="400" y="180">UNREGISTERED</text><text fill="#eeeeee" stroke="none" font-family="Arial" font-size="24px" font-style="normal" font-weight="normal" text-decoration="none" x="400" y="210">UNREGISTERED</text><text fill="#eeeeee" stroke="none" font-family="Arial" font-size="24px" font-style="normal" font-weight="normal" text-decoration="none" x="400" y="240">UNREGISTERED</text><text fill="#eeeeee" stroke="none" font-family="Arial" font-size="24px" font-style="normal" font-weight="normal" text-decoration="none" x="400" y="270">UNREGISTERED</text><text fill="#eeeeee" stroke="none" font-family="Arial" font-size="24px" font-style="normal" font-weight="normal" text-decoration="none" x="400" y="300">UNREGISTERED</text><text fill="#eeeeee" stroke="none" font-family="Arial" font-size="24px" font-style="normal" font-weight="normal" text-decoration="none" x="400" y="330">UNREGISTERED</text><text fill="#eeeeee" stroke="none" font-family="Arial" font-size="24px" font-style="normal" font-weight="normal" text-decoration="none" x="400" y="360">UNREGISTERED</text><text fill="#eeeeee" stroke="none" font-family="Arial" font-size="24px" font-style="normal" font-weight="normal" text-decoration="none" x="400" y="390">UNREGISTERED</text><text fill="#eeeeee" stroke="none" font-family="Arial" font-size="24px" font-style="normal" font-weight="normal" text-decoration="none" x="400" y="420">UNREGISTERED</text><text fill="#eeeeee" stroke="none" font-family="Arial" font-size="24px" font-style="normal" font-weight="normal" text-decoration="none" x="400" y="450">UNREGISTERED</text><text fill="#eeeeee" stroke="none" font-family="Arial" font-size="24px" font-style="normal" font-weight="normal" text-decoration="none" x="400" y="480">UNREGISTERED</text><text fill="#eeeeee" stroke="none" font-family="Arial" font-size="24px" font-style="normal" font-weight="normal" text-decoration="none" x="400" y="510">UNREGISTERED</text><text fill="#eeeeee" stroke="none" font-family="Arial" font-size="24px" font-style="normal" font-weight="normal" text-decoration="none" x="400" y="540">UNREGISTERED</text><text fill="#eeeeee" stroke="none" font-family="Arial" font-size="24px" font-style="normal" font-weight="normal" text-decoration="none" x="400" y="570">UNREGISTERED</text><text fill="#eeeeee" stroke="none" font-family="Arial" font-size="24px" font-style="normal" font-weight="normal" text-decoration="none" x="400" y="600">UNREGISTERED</text><text fill="#eeeeee" stroke="none" font-family="Arial" font-size="24px" font-style="normal" font-weight="normal" text-decoration="none" x="400" y="630">UNREGISTERED</text><text fill="#eeeeee" stroke="none" font-family="Arial" font-size="24px" font-style="normal" font-weight="normal" text-decoration="none" x="400" y="660">UNREGISTERED</text><text fill="#eeeeee" stroke="none" font-family="Arial" font-size="24px" font-style="normal" font-weight="normal" text-decoration="none" x="400" y="690">UNREGISTERED</text><text fill="#eeeeee" stroke="none" font-family="Arial" font-size="24px" font-style="normal" font-weight="normal" text-decoration="none" x="400" y="720">UNREGISTERED</text><text fill="#eeeeee" stroke="none" font-family="Arial" font-size="24px" font-style="normal" font-weight="normal" text-decoration="none" x="600" y="0">UNREGISTERED</text><text fill="#eeeeee" stroke="none" font-family="Arial" font-size="24px" font-style="normal" font-weight="normal" text-decoration="none" x="600" y="30">UNREGISTERED</text><text fill="#eeeeee" stroke="none" font-family="Arial" font-size="24px" font-style="normal" font-weight="normal" text-decoration="none" x="600" y="60">UNREGISTERED</text><text fill="#eeeeee" stroke="none" font-family="Arial" font-size="24px" font-style="normal" font-weight="normal" text-decoration="none" x="600" y="90">UNREGISTERED</text><text fill="#eeeeee" stroke="none" font-family="Arial" font-size="24px" font-style="normal" font-weight="normal" text-decoration="none" x="600" y="120">UNREGISTERED</text><text fill="#eeeeee" stroke="none" font-family="Arial" font-size="24px" font-style="normal" font-weight="normal" text-decoration="none" x="600" y="150">UNREGISTERED</text><text fill="#eeeeee" stroke="none" font-family="Arial" font-size="24px" font-style="normal" font-weight="normal" text-decoration="none" x="600" y="180">UNREGISTERED</text><text fill="#eeeeee" stroke="none" font-family="Arial" font-size="24px" font-style="normal" font-weight="normal" text-decoration="none" x="600" y="210">UNREGISTERED</text><text fill="#eeeeee" stroke="none" font-family="Arial" font-size="24px" font-style="normal" font-weight="normal" text-decoration="none" x="600" y="240">UNREGISTERED</text><text fill="#eeeeee" stroke="none" font-family="Arial" font-size="24px" font-style="normal" font-weight="normal" text-decoration="none" x="600" y="270">UNREGISTERED</text><text fill="#eeeeee" stroke="none" font-family="Arial" font-size="24px" font-style="normal" font-weight="normal" text-decoration="none" x="600" y="300">UNREGISTERED</text><text fill="#eeeeee" stroke="none" font-family="Arial" font-size="24px" font-style="normal" font-weight="normal" text-decoration="none" x="600" y="330">UNREGISTERED</text><text fill="#eeeeee" stroke="none" font-family="Arial" font-size="24px" font-style="normal" font-weight="normal" text-decoration="none" x="600" y="360">UNREGISTERED</text><text fill="#eeeeee" stroke="none" font-family="Arial" font-size="24px" font-style="normal" font-weight="normal" text-decoration="none" x="600" y="390">UNREGISTERED</text><text fill="#eeeeee" stroke="none" font-family="Arial" font-size="24px" font-style="normal" font-weight="normal" text-decoration="none" x="600" y="420">UNREGISTERED</text><text fill="#eeeeee" stroke="none" font-family="Arial" font-size="24px" font-style="normal" font-weight="normal" text-decoration="none" x="600" y="450">UNREGISTERED</text><text fill="#eeeeee" stroke="none" font-family="Arial" font-size="24px" font-style="normal" font-weight="normal" text-decoration="none" x="600" y="480">UNREGISTERED</text><text fill="#eeeeee" stroke="none" font-family="Arial" font-size="24px" font-style="normal" font-weight="normal" text-decoration="none" x="600" y="510">UNREGISTERED</text><text fill="#eeeeee" stroke="none" font-family="Arial" font-size="24px" font-style="normal" font-weight="normal" text-decoration="none" x="600" y="540">UNREGISTERED</text><text fill="#eeeeee" stroke="none" font-family="Arial" font-size="24px" font-style="normal" font-weight="normal" text-decoration="none" x="600" y="570">UNREGISTERED</text><text fill="#eeeeee" stroke="none" font-family="Arial" font-size="24px" font-style="normal" font-weight="normal" text-decoration="none" x="600" y="600">UNREGISTERED</text><text fill="#eeeeee" stroke="none" font-family="Arial" font-size="24px" font-style="normal" font-weight="normal" text-decoration="none" x="600" y="630">UNREGISTERED</text><text fill="#eeeeee" stroke="none" font-family="Arial" font-size="24px" font-style="normal" font-weight="normal" text-decoration="none" x="600" y="660">UNREGISTERED</text><text fill="#eeeeee" stroke="none" font-family="Arial" font-size="24px" font-style="normal" font-weight="normal" text-decoration="none" x="600" y="690">UNREGISTERED</text><text fill="#eeeeee" stroke="none" font-family="Arial" font-size="24px" font-style="normal" font-weight="normal" text-decoration="none" x="600" y="720">UNREGISTERED</text><g transform="translate(-46,-102) scale(1,1)"><rect fill="#C0C0C0" stroke="none" x="207" y="119" width="632" height="720" opacity="0.2"/></g><g transform="translate(-46,-102) scale(1,1)"><rect fill="#ffffff" stroke="none" x="200" y="112" width="632" height="720"/></g><g transform="translate(-46,-102) scale(1,1)"><path fill="none" stroke="#000000" d="M 200 112 L 832 112 L 832 832 L 200 832 L 200 112 Z Z" stroke-miterlimit="10"/></g><g transform="translate(-46,-102) scale(1,1)"><g><path fill="none" stroke="none"/><text fill="#000000" stroke="none" font-family="Arial" font-size="13px" font-style="normal" font-weight="bold" text-decoration="none" x="435.44189453125" y="131.5">Master-details Resident Evil</text></g></g><g transform="translate(-46,-102) scale(1,1)"><path fill="#ffffff" stroke="none" d="M 72.40935031960227 441.68 C 72.40935031960227 436.886167936 76.29519264454773 433 81.088623046875 433 C 85.88205344920227 433 89.76789577414773 436.886167936 89.76789577414773 441.68 C 89.76789577414773 446.473832064 85.88205344920227 450.36 81.088623046875 450.36 C 76.29519264454773 450.36 72.40935031960227 446.473832064 72.40935031960227 441.68 Z"/></g><g transform="translate(-46,-102) scale(1,1)"><path fill="none" stroke="#000000" d="M 72.40935031960227 441.68 C 72.40935031960227 436.886167936 76.29519264454773 433 81.088623046875 433 C 85.88205344920227 433 89.76789577414773 436.886167936 89.76789577414773 441.68 C 89.76789577414773 446.473832064 85.88205344920227 450.36 81.088623046875 450.36 C 76.29519264454773 450.36 72.40935031960227 446.473832064 72.40935031960227 441.68 Z" stroke-miterlimit="10"/></g><g transform="translate(-46,-102) scale(1,1)"><path fill="none" stroke="#000000" d="M 81.088623046875 450.36 L 81.088623046875 467.64" stroke-miterlimit="10"/></g><g transform="translate(-46,-102) scale(1,1)"><path fill="none" stroke="#000000" d="M 71.89880486505682 456.84 L 90.27844122869318 456.84" stroke-miterlimit="10"/></g><g transform="translate(-46,-102) scale(1,1)"><path fill="none" stroke="#000000" d="M 81.088623046875 467.64 L 68.32498668323863 485" stroke-miterlimit="10"/></g><g transform="translate(-46,-102) scale(1,1)"><path fill="none" stroke="#000000" d="M 81.088623046875 467.64 L 93.85225941051137 485" stroke-miterlimit="10"/></g><g transform="translate(-46,-102) scale(1,1)"><g><path fill="none" stroke="none"/><text fill="#000000" stroke="none" font-family="Arial" font-size="13px" font-style="normal" font-weight="bold" text-decoration="none" x="64.470458984375" y="505.5">Client</text></g></g><g transform="translate(-46,-102) scale(1,1)"><path fill="#C0C0C0" stroke="none" d="M 247 299 C 247 283.5360256 281.0263552 271 323 271 C 364.9736448 271 399 283.5360256 399 299 C 399 314.4639744 364.9736448 327 323 327 C 281.0263552 327 247 314.4639744 247 299 Z" opacity="0.2"/></g><g transform="translate(-46,-102) scale(1,1)"><path fill="#ffffff" stroke="none" d="M 240 292 C 240 276.5360256 274.0263552 264 316 264 C 357.9736448 264 392 276.5360256 392 292 C 392 307.4639744 357.9736448 320 316 320 C 274.0263552 320 240 307.4639744 240 292 Z"/></g><g transform="translate(-46,-102) scale(1,1)"><path fill="none" stroke="#000000" d="M 240 292 C 240 276.5360256 274.0263552 264 316 264 C 357.9736448 264 392 276.5360256 392 292 C 392 307.4639744 357.9736448 320 316 320 C 274.0263552 320 240 307.4639744 240 292 Z" stroke-miterlimit="10"/></g><g transform="translate(-46,-102) scale(1,1)"><g><path fill="none" stroke="none"/><text fill="#000000" stroke="none" font-family="Arial" font-size="13px" font-style="normal" font-weight="bold" text-decoration="none" x="290.70458984375" y="292.5">faire une</text><text fill="#000000" stroke="none" font-family="Arial" font-size="13px" font-style="normal" font-weight="bold" text-decoration="none" x="287.095947265625" y="305.5">recherche</text></g></g><g transform="translate(-46,-102) scale(1,1)"><path fill="#C0C0C0" stroke="none" d="M 239 434.5 C 239 410.4756112 271.2354944 391 311 391 C 350.7645056 391 383 410.4756112 383 434.5 C 383 458.5243888 350.7645056 478 311 478 C 271.2354944 478 239 458.5243888 239 434.5 Z" opacity="0.2"/></g><g transform="translate(-46,-102) scale(1,1)"><path fill="#ffffff" stroke="none" d="M 232 427.5 C 232 403.4756112 264.2354944 384 304 384 C 343.7645056 384 376 403.4756112 376 427.5 C 376 451.5243888 343.7645056 471 304 471 C 264.2354944 471 232 451.5243888 232 427.5 Z"/></g><g transform="translate(-46,-102) scale(1,1)"><path fill="none" stroke="#000000" d="M 232 427.5 C 232 403.4756112 264.2354944 384 304 384 C 343.7645056 384 376 403.4756112 376 427.5 C 376 451.5243888 343.7645056 471 304 471 C 264.2354944 471 232 451.5243888 232 427.5 Z" stroke-miterlimit="10"/></g><g transform="translate(-46,-102) scale(1,1)"><g><path fill="none" stroke="none"/><text fill="#000000" stroke="none" font-family="Arial" font-size="13px" font-style="normal" font-weight="bold" text-decoration="none" x="272.56640625" y="428">choisir une</text><text fill="#000000" stroke="none" font-family="Arial" font-size="13px" font-style="normal" font-weight="bold" text-decoration="none" x="277.260498046875" y="441">catégorie</text></g></g><g transform="translate(-46,-102) scale(1,1)"><path fill="none" stroke="#000000" d="M 107 451 L 278 321" stroke-miterlimit="10"/></g><g transform="translate(-46,-102) scale(1,1)"><path fill="#C0C0C0" stroke="none" d="M 223 535 C 223 512.908608 264.1897984 495 315 495 C 365.8102016 495 407 512.908608 407 535 C 407 557.091392 365.8102016 575 315 575 C 264.1897984 575 223 557.091392 223 535 Z" opacity="0.2"/></g><g transform="translate(-46,-102) scale(1,1)"><path fill="#ffffff" stroke="none" d="M 216 528 C 216 505.908608 257.1897984 488 308 488 C 358.8102016 488 400 505.908608 400 528 C 400 550.091392 358.8102016 568 308 568 C 257.1897984 568 216 550.091392 216 528 Z"/></g><g transform="translate(-46,-102) scale(1,1)"><path fill="none" stroke="#000000" d="M 216 528 C 216 505.908608 257.1897984 488 308 488 C 358.8102016 488 400 505.908608 400 528 C 400 550.091392 358.8102016 568 308 568 C 257.1897984 568 216 550.091392 216 528 Z" stroke-miterlimit="10"/></g><g transform="translate(-46,-102) scale(1,1)"><g><path fill="none" stroke="none"/><text fill="#000000" stroke="none" font-family="Arial" font-size="13px" font-style="normal" font-weight="bold" text-decoration="none" x="259.58642578125" y="528.5">Pouvoir regarder</text><text fill="#000000" stroke="none" font-family="Arial" font-size="13px" font-style="normal" font-weight="bold" text-decoration="none" x="279.095947265625" y="541.5">les details</text></g></g><g transform="translate(-46,-102) scale(1,1)"><path fill="#C0C0C0" stroke="none" d="M 231 182.5 C 231 156.266472 266.81721600000003 135 311 135 C 355.18278399999997 135 391 156.266472 391 182.5 C 391 208.733528 355.18278399999997 230 311 230 C 266.81721600000003 230 231 208.733528 231 182.5 Z" opacity="0.2"/></g><g transform="translate(-46,-102) scale(1,1)"><path fill="#ffffff" stroke="none" d="M 224 175.5 C 224 149.266472 259.81721600000003 128 304 128 C 348.18278399999997 128 384 149.266472 384 175.5 C 384 201.733528 348.18278399999997 223 304 223 C 259.81721600000003 223 224 201.733528 224 175.5 Z"/></g><g transform="translate(-46,-102) scale(1,1)"><path fill="none" stroke="#000000" d="M 224 175.5 C 224 149.266472 259.81721600000003 128 304 128 C 348.18278399999997 128 384 149.266472 384 175.5 C 384 201.733528 348.18278399999997 223 304 223 C 259.81721600000003 223 224 201.733528 224 175.5 Z" stroke-miterlimit="10"/></g><g transform="translate(-46,-102) scale(1,1)"><g><path fill="none" stroke="none"/><text fill="#000000" stroke="none" font-family="Arial" font-size="13px" font-style="normal" font-weight="bold" text-decoration="none" x="255.5927734375" y="182.5">Mettre en favoris</text></g></g><g transform="translate(-46,-102) scale(1,1)"><path fill="#C0C0C0" stroke="none" d="M 263 762.5 C 263 738.4756112 296.1309248 719 337 719 C 377.8690752 719 411 738.4756112 411 762.5 C 411 786.5243888 377.8690752 806 337 806 C 296.1309248 806 263 786.5243888 263 762.5 Z" opacity="0.2"/></g><g transform="translate(-46,-102) scale(1,1)"><path fill="#ffffff" stroke="none" d="M 256 755.5 C 256 731.4756112 289.1309248 712 330 712 C 370.8690752 712 404 731.4756112 404 755.5 C 404 779.5243888 370.8690752 799 330 799 C 289.1309248 799 256 779.5243888 256 755.5 Z"/></g><g transform="translate(-46,-102) scale(1,1)"><path fill="none" stroke="#000000" d="M 256 755.5 C 256 731.4756112 289.1309248 712 330 712 C 370.8690752 712 404 731.4756112 404 755.5 C 404 779.5243888 370.8690752 799 330 799 C 289.1309248 799 256 779.5243888 256 755.5 Z" stroke-miterlimit="10"/></g><g transform="translate(-46,-102) scale(1,1)"><g><path fill="none" stroke="none"/><text fill="#000000" stroke="none" font-family="Arial" font-size="13px" font-style="normal" font-weight="bold" text-decoration="none" x="286.655029296875" y="762.5">voir ses favoris</text></g></g><g transform="translate(-46,-102) scale(1,1)"><path fill="none" stroke="#000000" d="M 107 501 L 291 711" stroke-miterlimit="10"/></g><g transform="translate(-46,-102) scale(1,1)"><path fill="#C0C0C0" stroke="none" d="M 527 266.5 C 527 251.31216799999999 577.1441024 239 639 239 C 700.8558976 239 751 251.31216799999999 751 266.5 C 751 281.687832 700.8558976 294 639 294 C 577.1441024 294 527 281.687832 527 266.5 Z" opacity="0.2"/></g><g transform="translate(-46,-102) scale(1,1)"><path fill="#ffffff" stroke="none" d="M 520 259.5 C 520 244.31216799999999 570.1441024 232 632 232 C 693.8558976 232 744 244.31216799999999 744 259.5 C 744 274.687832 693.8558976 287 632 287 C 570.1441024 287 520 274.687832 520 259.5 Z"/></g><g transform="translate(-46,-102) scale(1,1)"><path fill="none" stroke="#000000" d="M 520 259.5 C 520 244.31216799999999 570.1441024 232 632 232 C 693.8558976 232 744 244.31216799999999 744 259.5 C 744 274.687832 693.8558976 287 632 287 C 570.1441024 287 520 274.687832 520 259.5 Z" stroke-miterlimit="10"/></g><g transform="translate(-46,-102) scale(1,1)"><g><path fill="none" stroke="none"/><text fill="#000000" stroke="none" font-family="Arial" font-size="13px" font-style="normal" font-weight="bold" text-decoration="none" x="565.12109375" y="260">Afficher l'erreur aucune</text><text fill="#000000" stroke="none" font-family="Arial" font-size="13px" font-style="normal" font-weight="bold" text-decoration="none" x="613.569580078125" y="273">entrée</text></g></g><g transform="translate(-46,-102) scale(1,1)"><path fill="none" stroke="#000000" d="M 519 271 L 393 284" stroke-miterlimit="10" stroke-dasharray="3"/></g><g transform="translate(-46,-102) scale(1,1)"><path fill="none" stroke="#000000" d="M 402.67699010484165 278.7697167848388 L 393 284 L 403.5410340535753 287.144296595642" stroke-miterlimit="10"/></g><g transform="translate(-46,-102) scale(1,1)"><g><path fill="none" stroke="none"/><text fill="#000000" stroke="none" font-family="Arial" font-size="13px" font-style="normal" font-weight="normal" text-decoration="none" x="447.5" y="301.5">«extend»</text></g></g><g transform="translate(-46,-102) scale(1,1)"><path fill="none" stroke="#000000" d="M 308 383 L 313 321" stroke-miterlimit="10" stroke-dasharray="3"/></g><g transform="translate(-46,-102) scale(1,1)"><path fill="none" stroke="#000000" d="M 316.37897718132547 331.4681666593574 L 313 321 L 307.9871860469673 330.79140930981237" stroke-miterlimit="10"/></g><g transform="translate(-46,-102) scale(1,1)"><g><path fill="none" stroke="none"/><text fill="#000000" stroke="none" font-family="Arial" font-size="13px" font-style="normal" font-weight="normal" text-decoration="none" x="253.5" y="355.5">«extend»</text></g></g><g transform="translate(-46,-102) scale(1,1)"><path fill="#C0C0C0" stroke="none" d="M 519 758.5 C 519 732.266472 559.5182256 711 609.5 711 C 659.4817744 711 700 732.266472 700 758.5 C 700 784.733528 659.4817744 806 609.5 806 C 559.5182256 806 519 784.733528 519 758.5 Z" opacity="0.2"/></g><g transform="translate(-46,-102) scale(1,1)"><path fill="#ffffff" stroke="none" d="M 512 751.5 C 512 725.266472 552.5182256 704 602.5 704 C 652.4817744 704 693 725.266472 693 751.5 C 693 777.733528 652.4817744 799 602.5 799 C 552.5182256 799 512 777.733528 512 751.5 Z"/></g><g transform="translate(-46,-102) scale(1,1)"><path fill="none" stroke="#000000" d="M 512 751.5 C 512 725.266472 552.5182256 704 602.5 704 C 652.4817744 704 693 725.266472 693 751.5 C 693 777.733528 652.4817744 799 602.5 799 C 552.5182256 799 512 777.733528 512 751.5 Z" stroke-miterlimit="10"/></g><g transform="translate(-46,-102) scale(1,1)"><g><path fill="none" stroke="none"/><text fill="#000000" stroke="none" font-family="Arial" font-size="13px" font-style="normal" font-weight="bold" text-decoration="none" x="547.224609375" y="758.5">Enlever des favoris</text></g></g><g transform="translate(-46,-102) scale(1,1)"><path fill="none" stroke="#000000" d="M 511 752 L 405 754" stroke-miterlimit="10" stroke-dasharray="3"/></g><g transform="translate(-46,-102) scale(1,1)"><path fill="none" stroke="#000000" d="M 415.08145566205394 749.5995168749283 L 405 754 L 415.240277121105 758.0170542046347" stroke-miterlimit="10"/></g><g transform="translate(-46,-102) scale(1,1)"><g><path fill="none" stroke="none"/><text fill="#000000" stroke="none" font-family="Arial" font-size="13px" font-style="normal" font-weight="normal" text-decoration="none" x="431.5" y="788.5">«extend»</text></g></g><g transform="translate(-46,-102) scale(1,1)"><path fill="none" stroke="#000000" d="M 107 478 L 215 505" stroke-miterlimit="10"/></g><g transform="translate(-46,-102) scale(1,1)"><path fill="none" stroke="#000000" d="M 267 224 L 107 436" stroke-miterlimit="10"/></g><g transform="translate(-46,-102) scale(1,1)"><path fill="#C0C0C0" stroke="none" d="M 447 407 C 447 380.4903296 491.77152 359 547 359 C 602.22848 359 647 380.4903296 647 407 C 647 433.5096704 602.22848 455 547 455 C 491.77152 455 447 433.5096704 447 407 Z" opacity="0.2"/></g><g transform="translate(-46,-102) scale(1,1)"><path fill="#ffffff" stroke="none" d="M 440 400 C 440 373.4903296 484.77152 352 540 352 C 595.22848 352 640 373.4903296 640 400 C 640 426.5096704 595.22848 448 540 448 C 484.77152 448 440 426.5096704 440 400 Z"/></g><g transform="translate(-46,-102) scale(1,1)"><path fill="none" stroke="#000000" d="M 440 400 C 440 373.4903296 484.77152 352 540 352 C 595.22848 352 640 373.4903296 640 400 C 640 426.5096704 595.22848 448 540 448 C 484.77152 448 440 426.5096704 440 400 Z" stroke-miterlimit="10"/></g><g transform="translate(-46,-102) scale(1,1)"><g><path fill="none" stroke="none"/><text fill="#000000" stroke="none" font-family="Arial" font-size="13px" font-style="normal" font-weight="bold" text-decoration="none" x="482.91552734375" y="400.5">modifier un élément</text><text fill="#000000" stroke="none" font-family="Arial" font-size="13px" font-style="normal" font-weight="bold" text-decoration="none" x="512.5400390625" y="413.5">de la liste</text></g></g><g transform="translate(-46,-102) scale(1,1)"><path fill="#C0C0C0" stroke="none" d="M 439 655 C 439 637.3268864 489.5918176 623 552 623 C 614.4081824 623 665 637.3268864 665 655 C 665 672.6731136 614.4081824 687 552 687 C 489.5918176 687 439 672.6731136 439 655 Z" opacity="0.2"/></g><g transform="translate(-46,-102) scale(1,1)"><path fill="#ffffff" stroke="none" d="M 432 648 C 432 630.3268864 482.5918176 616 545 616 C 607.4081824 616 658 630.3268864 658 648 C 658 665.6731136 607.4081824 680 545 680 C 482.5918176 680 432 665.6731136 432 648 Z"/></g><g transform="translate(-46,-102) scale(1,1)"><path fill="none" stroke="#000000" d="M 432 648 C 432 630.3268864 482.5918176 616 545 616 C 607.4081824 616 658 630.3268864 658 648 C 658 665.6731136 607.4081824 680 545 680 C 482.5918176 680 432 665.6731136 432 648 Z" stroke-miterlimit="10"/></g><g transform="translate(-46,-102) scale(1,1)"><g><path fill="none" stroke="none"/><text fill="#000000" stroke="none" font-family="Arial" font-size="13px" font-style="normal" font-weight="bold" text-decoration="none" x="487.9091796875" y="648.5">ajouter élément à la</text><text fill="#000000" stroke="none" font-family="Arial" font-size="13px" font-style="normal" font-weight="bold" text-decoration="none" x="533.44091796875" y="661.5">liste</text></g></g><g transform="translate(-46,-102) scale(1,1)"><path fill="#C0C0C0" stroke="none" d="M 455 547 C 455 527.1177472 499.77152 511 555 511 C 610.22848 511 655 527.1177472 655 547 C 655 566.8822528 610.22848 583 555 583 C 499.77152 583 455 566.8822528 455 547 Z" opacity="0.2"/></g><g transform="translate(-46,-102) scale(1,1)"><path fill="#ffffff" stroke="none" d="M 448 540 C 448 520.1177472 492.77152 504 548 504 C 603.22848 504 648 520.1177472 648 540 C 648 559.8822528 603.22848 576 548 576 C 492.77152 576 448 559.8822528 448 540 Z"/></g><g transform="translate(-46,-102) scale(1,1)"><path fill="none" stroke="#000000" d="M 448 540 C 448 520.1177472 492.77152 504 548 504 C 603.22848 504 648 520.1177472 648 540 C 648 559.8822528 603.22848 576 548 576 C 492.77152 576 448 559.8822528 448 540 Z" stroke-miterlimit="10"/></g><g transform="translate(-46,-102) scale(1,1)"><g><path fill="none" stroke="none"/><text fill="#000000" stroke="none" font-family="Arial" font-size="13px" font-style="normal" font-weight="bold" text-decoration="none" x="510.06640625" y="540.5">supprimer un</text><text fill="#000000" stroke="none" font-family="Arial" font-size="13px" font-style="normal" font-weight="bold" text-decoration="none" x="495.609619140625" y="553.5">élément de la liste</text></g></g><g transform="translate(-46,-102) scale(1,1)"><path fill="none" stroke="#000000" d="M 431 631 L 224 600 L 107 495" stroke-miterlimit="10"/></g><g transform="translate(-46,-102) scale(1,1)"><path fill="none" stroke="#000000" d="M 447 560 L 280 592 L 107 487" stroke-miterlimit="10"/></g><g transform="translate(-46,-102) scale(1,1)"><path fill="none" stroke="#000000" d="M 454 449 L 400 480 L 107 472" stroke-miterlimit="10"/></g></g></svg>