<svg version="1.1" xmlns="http://www.w3.org/2000/svg" xmlns:xlink="http://www.w3.org/1999/xlink" width="796" height="740"><defs/><g><text fill="#eeeeee" stroke="none" font-family="Arial" font-size="24px" font-style="normal" font-weight="normal" text-decoration="none" x="0" y="0">UNREGISTERED</text><text fill="#eeeeee" stroke="none" font-family="Arial" font-size="24px" font-style="normal" font-weight="normal" text-decoration="none" x="0" y="30">UNREGISTERED</text><text fill="#eeeeee" stroke="none" font-family="Arial" font-size="24px" font-style="normal" font-weight="normal" text-decoration="none" x="0" y="60">UNREGISTERED</text><text fill="#eeeeee" stroke="none" font-family="Arial" font-size="24px" font-style="normal" font-weight="normal" text-decoration="none" x="0" y="90">UNREGISTERED</text><text fill="#eeeeee" stroke="none" font-family="Arial" font-size="24px" font-style="normal" font-weight="normal" text-decoration="none" x="0" y="120">UNREGISTERED</text><text fill="#eeeeee" stroke="none" font-family="Arial" font-size="24px" font-style="normal" font-weight="normal" text-decoration="none" x="0" y="150">UNREGISTERED</text><text fill="#eeeeee" stroke="none" font-family="Arial" font-size="24px" font-style="normal" font-weight="normal" text-decoration="none" x="0" y="180">UNREGISTERED</text><text fill="#eeeeee" stroke="none" font-family="Arial" font-size="24px" font-style="normal" font-weight="normal" text-decoration="none" x="0" y="210">UNREGISTERED</text><text fill="#eeeeee" stroke="none" font-family="Arial" font-size="24px" font-style="normal" font-weight="normal" text-decoration="none" x="0" y="240">UNREGISTERED</text><text fill="#eeeeee" stroke="none" font-family="Arial" font-size="24px" font-style="normal" font-weight="normal" text-decoration="none" x="0" y="270">UNREGISTERED</text><text fill="#eeeeee" stroke="none" font-family="Arial" font-size="24px" font-style="normal" font-weight="normal" text-decoration="none" x="0" y="300">UNREGISTERED</text><text fill="#eeeeee" stroke="none" font-family="Arial" font-size="24px" font-style="normal" font-weight="normal" text-decoration="none" x="0" y="330">UNREGISTERED</text><text fill="#eeeeee" stroke="none" font-family="Arial" font-size="24px" font-style="normal" font-weight="normal" text-decoration="none" x="0" y="360">UNREGISTERED</text><text fill="#eeeeee" stroke="none" font-family="Arial" font-size="24px" font-style="normal" font-weight="normal" text-decoration="none" x="0" y="390">UNREGISTERED</text><text fill="#eeeeee" stroke="none" font-family="Arial" font-size="24px" font-style="normal" font-weight="normal" text-decoration="none" x="0" y="420">UNREGISTERED</text><text fill="#eeeeee" stroke="none" font-family="Arial" font-size="24px" font-style="normal" font-weight="normal" text-decoration="none" x="0" y="450">UNREGISTERED</text><text fill="#eeeeee" stroke="none" font-family="Arial" font-size="24px" font-style="normal" font-weight="normal" text-decoration="none" x="0" y="480">UNREGISTERED</text><text fill="#eeeeee" stroke="none" font-family="Arial" font-size="24px" font-style="normal" font-weight="normal" text-decoration="none" x="0" y="510">UNREGISTERED</text><text fill="#eeeeee" stroke="none" font-family="Arial" font-size="24px" font-style="normal" font-weight="normal" text-decoration="none" x="0" y="540">UNREGISTERED</text><text fill="#eeeeee" stroke="none" font-family="Arial" font-size="24px" font-style="normal" font-weight="normal" text-decoration="none" x="0" y="570">UNREGISTERED</text><text fill="#eeeeee" stroke="none" font-family="Arial" font-size="24px" font-style="normal" font-weight="normal" text-decoration="none" x="0" y="600">UNREGISTERED</text><text fill="#eeeeee" stroke="none" font-family="Arial" font-size="24px" font-style="normal" font-weight="normal" text-decoration="none" x="0" y="630">UNREGISTERED</text><text fill="#eeeeee" stroke="none" font-family="Arial" font-size="24px" font-style="normal" font-weight="normal" text-decoration="none" x="0" y="660">UNREGISTERED</text><text fill="#eeeeee" stroke="none" font-family="Arial" font-size="24px" font-style="normal" font-weight="normal" text-decoration="none" x="0" y="690">UNREGISTERED</text><text fill="#eeeeee" stroke="none" font-family="Arial" font-size="24px" font-style="normal" font-weight="normal" text-decoration="none" x="0" y="720">UNREGISTERED</text><text fill="#eeeeee" stroke="none" font-family="Arial" font-size="24px" font-style="normal" font-weight="normal" text-decoration="none" x="200" y="0">UNREGISTERED</text><text fill="#eeeeee" stroke="none" font-family="Arial" font-size="24px" font-style="normal" font-weight="normal" text-decoration="none" x="200" y="30">UNREGISTERED</text><text fill="#eeeeee" stroke="none" font-family="Arial" font-size="24px" font-style="normal" font-weight="normal" text-decoration="none" x="200" y="60">UNREGISTERED</text><text fill="#eeeeee" stroke="none" font-family="Arial" font-size="24px" font-style="normal" font-weight="normal" text-decoration="none" x="200" y="90">UNREGISTERED</text><text fill="#eeeeee" stroke="none" font-family="Arial" font-size="24px" font-style="normal" font-weight="normal" text-decoration="none" x="200" y="120">UNREGISTERED</text><text fill="#eeeeee" stroke="none" font-family="Arial" font-size="24px" font-style="normal" font-weight="normal" text-decoration="none" x="200" y="150">UNREGISTERED</text><text fill="#eeeeee" stroke="none" font-family="Arial" font-size="24px" font-style="normal" font-weight="normal" text-decoration="none" x="200" y="180">UNREGISTERED</text><text fill="#eeeeee" stroke="none" font-family="Arial" font-size="24px" font-style="normal" font-weight="normal" text-decoration="none" x="200" y="210">UNREGISTERED</text><text fill="#eeeeee" stroke="none" font-family="Arial" font-size="24px" font-style="normal" font-weight="normal" text-decoration="none" x="200" y="240">UNREGISTERED</text><text fill="#eeeeee" stroke="none" font-family="Arial" font-size="24px" font-style="normal" font-weight="normal" text-decoration="none" x="200" y="270">UNREGISTERED</text><text fill="#eeeeee" stroke="none" font-family="Arial" font-size="24px" font-style="normal" font-weight="normal" text-decoration="none" x="200" y="300">UNREGISTERED</text><text fill="#eeeeee" stroke="none" font-family="Arial" font-size="24px" font-style="normal" font-weight="normal" text-decoration="none" x="200" y="330">UNREGISTERED</text><text fill="#eeeeee" stroke="none" font-family="Arial" font-size="24px" font-style="normal" font-weight="normal" text-decoration="none" x="200" y="360">UNREGISTERED</text><text fill="#eeeeee" stroke="none" font-family="Arial" font-size="24px" font-style="normal" font-weight="normal" text-decoration="none" x="200" y="390">UNREGISTERED</text><text fill="#eeeeee" stroke="none" font-family="Arial" font-size="24px" font-style="normal" font-weight="normal" text-decoration="none" x="200" y="420">UNREGISTERED</text><text fill="#eeeeee" stroke="none" font-family="Arial" font-size="24px" font-style="normal" font-weight="normal" text-decoration="none" x="200" y="450">UNREGISTERED</text><text fill="#eeeeee" stroke="none" font-family="Arial" font-size="24px" font-style="normal" font-weight="normal" text-decoration="none" x="200" y="480">UNREGISTERED</text><text fill="#eeeeee" stroke="none" font-family="Arial" font-size="24px" font-style="normal" font-weight="normal" text-decoration="none" x="200" y="510">UNREGISTERED</text><text fill="#eeeeee" stroke="none" font-family="Arial" font-size="24px" font-style="normal" font-weight="normal" text-decoration="none" x="200" y="540">UNREGISTERED</text><text fill="#eeeeee" stroke="none" font-family="Arial" font-size="24px" font-style="normal" font-weight="normal" text-decoration="none" x="200" y="570">UNREGISTERED</text><text fill="#eeeeee" stroke="none" font-family="Arial" font-size="24px" font-style="normal" font-weight="normal" text-decoration="none" x="200" y="600">UNREGISTERED</text><text fill="#eeeeee" stroke="none" font-family="Arial" font-size="24px" font-style="normal" font-weight="normal" text-decoration="none" x="200" y="630">UNREGISTERED</text><text fill="#eeeeee" stroke="none" font-family="Arial" font-size="24px" font-style="normal" font-weight="normal" text-decoration="none" x="200" y="660">UNREGISTERED</text><text fill="#eeeeee" stroke="none" font-family="Arial" font-size="24px" font-style="normal" font-weight="normal" text-decoration="none" x="200" y="690">UNREGISTERED</text><text fill="#eeeeee" stroke="none" font-family="Arial" font-size="24px" font-style="normal" font-weight="normal" text-decoration="none" x="200" y="720">UNREGISTERED</text><text fill="#eeeeee" stroke="none" font-family="Arial" font-size="24px" font-style="normal" font-weight="normal" text-decoration="none" x="400" y="0">UNREGISTERED</text><text fill="#eeeeee" stroke="none" font-family="Arial" font-size="24px" font-style="normal" font-weight="normal" text-decoration="none" x="400" y="30">UNREGISTERED</text><text fill="#eeeeee" stroke="none" font-family="Arial" font-size="24px" font-style="normal" font-weight="normal" text-decoration="none" x="400" y="60">UNREGISTERED</text><text fill="#eeeeee" stroke="none" font-family="Arial" font-size="24px" font-style="normal" font-weight="normal" text-decoration="none" x="400" y="90">UNREGISTERED</text><text fill="#eeeeee" stroke="none" font-family="Arial" font-size="24px" font-style="normal" font-weight="normal" text-decoration="none" x="400" y="120">UNREGISTERED</text><text fill="#eeeeee" stroke="none" font-family="Arial" font-size="24px" font-style="normal" font-weight="normal" text-decoration="none" x="400" y="150">UNREGISTERED</text><text fill="#eeeeee" stroke="none" font-family="Arial" font-size="24px" font-style="normal" font-weight="normal" text-decoration="none" x="400" y="180">UNREGISTERED</text><text fill="#eeeeee" stroke="none" font-family="Arial" font-size="24px" font-style="normal" font-weight="normal" text-decoration="none" x="400" y="210">UNREGISTERED</text><text fill="#eeeeee" stroke="none" font-family="Arial" font-size="24px" font-style="normal" font-weight="normal" text-decoration="none" x="400" y="240">UNREGISTERED</text><text fill="#eeeeee" stroke="none" font-family="Arial" font-size="24px" font-style="normal" font-weight="normal" text-decoration="none" x="400" y="270">UNREGISTERED</text><text fill="#eeeeee" stroke="none" font-family="Arial" font-size="24px" font-style="normal" font-weight="normal" text-decoration="none" x="400" y="300">UNREGISTERED</text><text fill="#eeeeee" stroke="none" font-family="Arial" font-size="24px" font-style="normal" font-weight="normal" text-decoration="none" x="400" y="330">UNREGISTERED</text><text fill="#eeeeee" stroke="none" font-family="Arial" font-size="24px" font-style="normal" font-weight="normal" text-decoration="none" x="400" y="360">UNREGISTERED</text><text fill="#eeeeee" stroke="none" font-family="Arial" font-size="24px" font-style="normal" font-weight="normal" text-decoration="none" x="400" y="390">UNREGISTERED</text><text fill="#eeeeee" stroke="none" font-family="Arial" font-size="24px" font-style="normal" font-weight="normal" text-decoration="none" x="400" y="420">UNREGISTERED</text><text fill="#eeeeee" stroke="none" font-family="Arial" font-size="24px" font-style="normal" font-weight="normal" text-decoration="none" x="400" y="450">UNREGISTERED</text><text fill="#eeeeee" stroke="none" font-family="Arial" font-size="24px" font-style="normal" font-weight="normal" text-decoration="none" x="400" y="480">UNREGISTERED</text><text fill="#eeeeee" stroke="none" font-family="Arial" font-size="24px" font-style="normal" font-weight="normal" text-decoration="none" x="400" y="510">UNREGISTERED</text><text fill="#eeeeee" stroke="none" font-family="Arial" font-size="24px" font-style="normal" font-weight="normal" text-decoration="none" x="400" y="540">UNREGISTERED</text><text fill="#eeeeee" stroke="none" font-family="Arial" font-size="24px" font-style="normal" font-weight="normal" text-decoration="none" x="400" y="570">UNREGISTERED</text><text fill="#eeeeee" stroke="none" font-family="Arial" font-size="24px" font-style="normal" font-weight="normal" text-decoration="none" x="400" y="600">UNREGISTERED</text><text fill="#eeeeee" stroke="none" font-family="Arial" font-size="24px" font-style="normal" font-weight="normal" text-decoration="none" x="400" y="630">UNREGISTERED</text><text fill="#eeeeee" stroke="none" font-family="Arial" font-size="24px" font-style="normal" font-weight="normal" text-decoration="none" x="400" y="660">UNREGISTERED</text><text fill="#eeeeee" stroke="none" font-family="Arial" font-size="24px" font-style="normal" font-weight="normal" text-decoration="none" x="400" y="690">UNREGISTERED</text><text fill="#eeeeee" stroke="none" font-family="Arial" font-size="24px" font-style="normal" font-weight="normal" text-decoration="none" x="400" y="720">UNREGISTERED</text><text fill="#eeeeee" stroke="none" font-family="Arial" font-size="24px" font-style="normal" font-weight="normal" text-decoration="none" x="600" y="0">UNREGISTERED</text><text fill="#eeeeee" stroke="none" font-family="Arial" font-size="24px" font-style="normal" font-weight="normal" text-decoration="none" x="600" y="30">UNREGISTERED</text><text fill="#eeeeee" stroke="none" font-family="Arial" font-size="24px" font-style="normal" font-weight="normal" text-decoration="none" x="600" y="60">UNREGISTERED</text><text fill="#eeeeee" stroke="none" font-family="Arial" font-size="24px" font-style="normal" font-weight="normal" text-decoration="none" x="600" y="90">UNREGISTERED</text><text fill="#eeeeee" stroke="none" font-family="Arial" font-size="24px" font-style="normal" font-weight="normal" text-decoration="none" x="600" y="120">UNREGISTERED</text><text fill="#eeeeee" stroke="none" font-family="Arial" font-size="24px" font-style="normal" font-weight="normal" text-decoration="none" x="600" y="150">UNREGISTERED</text><text fill="#eeeeee" stroke="none" font-family="Arial" font-size="24px" font-style="normal" font-weight="normal" text-decoration="none" x="600" y="180">UNREGISTERED</text><text fill="#eeeeee" stroke="none" font-family="Arial" font-size="24px" font-style="normal" font-weight="normal" text-decoration="none" x="600" y="210">UNREGISTERED</text><text fill="#eeeeee" stroke="none" font-family="Arial" font-size="24px" font-style="normal" font-weight="normal" text-decoration="none" x="600" y="240">UNREGISTERED</text><text fill="#eeeeee" stroke="none" font-family="Arial" font-size="24px" font-style="normal" font-weight="normal" text-decoration="none" x="600" y="270">UNREGISTERED</text><text fill="#eeeeee" stroke="none" font-family="Arial" font-size="24px" font-style="normal" font-weight="normal" text-decoration="none" x="600" y="300">UNREGISTERED</text><text fill="#eeeeee" stroke="none" font-family="Arial" font-size="24px" font-style="normal" font-weight="normal" text-decoration="none" x="600" y="330">UNREGISTERED</text><text fill="#eeeeee" stroke="none" font-family="Arial" font-size="24px" font-style="normal" font-weight="normal" text-decoration="none" x="600" y="360">UNREGISTERED</text><text fill="#eeeeee" stroke="none" font-family="Arial" font-size="24px" font-style="normal" font-weight="normal" text-decoration="none" x="600" y="390">UNREGISTERED</text><text fill="#eeeeee" stroke="none" font-family="Arial" font-size="24px" font-style="normal" font-weight="normal" text-decoration="none" x="600" y="420">UNREGISTERED</text><text fill="#eeeeee" stroke="none" font-family="Arial" font-size="24px" font-style="normal" font-weight="normal" text-decoration="none" x="600" y="450">UNREGISTERED</text><text fill="#eeeeee" stroke="none" font-family="Arial" font-size="24px" font-style="normal" font-weight="normal" text-decoration="none" x="600" y="480">UNREGISTERED</text><text fill="#eeeeee" stroke="none" font-family="Arial" font-size="24px" font-style="normal" font-weight="normal" text-decoration="none" x="600" y="510">UNREGISTERED</text><text fill="#eeeeee" stroke="none" font-family="Arial" font-size="24px" font-style="normal" font-weight="normal" text-decoration="none" x="600" y="540">UNREGISTERED</text><text fill="#eeeeee" stroke="none" font-family="Arial" font-size="24px" font-style="normal" font-weight="normal" text-decoration="none" x="600" y="570">UNREGISTERED</text><text fill="#eeeeee" stroke="none" font-family="Arial" font-size="24px" font-style="normal" font-weight="normal" text-decoration="none" x="600" y="600">UNREGISTERED</text><text fill="#eeeeee" stroke="none" font-family="Arial" font-size="24px" font-style="normal" font-weight="normal" text-decoration="none" x="600" y="630">UNREGISTERED</text><text fill="#eeeeee" stroke="none" font-family="Arial" font-size="24px" font-style="normal" font-weight="normal" text-decoration="none" x="600" y="660">UNREGISTERED</text><text fill="#eeeeee" stroke="none" font-family="Arial" font-size="24px" font-style="normal" font-weight="normal" text-decoration="none" x="600" y="690">UNREGISTERED</text><text fill="#eeeeee" stroke="none" font-family="Arial" font-size="24px" font-style="normal" font-weight="normal" text-decoration="none" x="600" y="720">UNREGISTERED</text><g transform="translate(-46,-102) scale(1,1)"><rect fill="#C0C0C0" stroke="none" x="207" y="119" width="632" height="720" opacity="0.2"/></g><g transform="translate(-46,-102) scale(1,1)"><rect fill="#ffffff" stroke="none" x="200" y="112" width="632" height="720"/></g><g transform="translate(-46,-102) scale(1,1)"><path fill="none" stroke="#000000" d="M 200 112 L 832 112 L 832 832 L 200 832 L 200 112 Z Z" stroke-miterlimit="10"/></g><g transform="translate(-46,-102) scale(1,1)"><g><path fill="none" stroke="none"/><text fill="#000000" stroke="none" font-family="Arial" font-size="13px" font-style="normal" font-weight="bold" text-decoration="none" x="435.44189453125" y="131.5">Master-details Resident Evil</text></g></g><g transform="translate(-46,-102) scale(1,1)"><path fill="#ffffff" stroke="none" d="M 72.40935031960227 441.68 C 72.40935031960227 436.886167936 76.29519264454773 433 81.088623046875 433 C 85.88205344920227 433 89.76789577414773 436.886167936 89.76789577414773 441.68 C 89.76789577414773 446.473832064 85.88205344920227 450.36 81.088623046875 450.36 C 76.29519264454773 450.36 72.40935031960227 446.473832064 72.40935031960227 441.68 Z"/></g><g transform="translate(-46,-102) scale(1,1)"><path fill="none" stroke="#000000" d="M 72.40935031960227 441.68 C 72.40935031960227 436.886167936 76.29519264454773 433 81.088623046875 433 C 85.88205344920227 433 89.76789577414773 436.886167936 89.76789577414773 441.68 C 89.76789577414773 446.473832064 85.88205344920227 450.36 81.088623046875 450.36 C 76.29519264454773 450.36 72.40935031960227 446.473832064 72.40935031960227 441.68 Z" stroke-miterlimit="10"/></g><g transform="translate(-46,-102) scale(1,1)"><path fill="none" stroke="#000000" d="M 81.088623046875 450.36 L 81.088623046875 467.64" stroke-miterlimit="10"/></g><g transform="translate(-46,-102) scale(1,1)"><path fill="none" stroke="#000000" d="M 71.89880486505682 456.84 L 90.27844122869318 456.84" stroke-miterlimit="10"/></g><g transform="translate(-46,-102) scale(1,1)"><path fill="none" stroke="#000000" d="M 81.088623046875 467.64 L 68.32498668323863 485" stroke-miterlimit="10"/></g><g transform="translate(-46,-102) scale(1,1)"><path fill="none" stroke="#000000" d="M 81.088623046875 467.64 L 93.85225941051137 485" stroke-miterlimit="10"/></g><g transform="translate(-46,-102) scale(1,1)"><g><path fill="none" stroke="none"/><text fill="#000000" stroke="none" font-family="Arial" font-size="13px" font-style="normal" font-weight="bold" text-decoration="none" x="64.470458984375" y="505.5">Client</text></g></g><g transform="translate(-46,-102) scale(1,1)"><path fill="#C0C0C0" stroke="none" d="M 247 299 C 247 283.5360256 281.0263552 271 323 271 C 364.9736448 271 399 283.5360256 399 299 C 399 314.4639744 364.9736448 327 323 327 C 281.0263552 327 247 314.4639744 247 299 Z" opacity="0.2"/></g><g transform="translate(-46,-102) scale(1,1)"><path fill="#ffffff" stroke="none" d="M 240 292 C 240 276.5360256 274.0263552 264 316 264 C 357.9736448 264 392 276.5360256 392 292 C 392 307.4639744 357.9736448 320 316 320 C 274.0263552 320 240 307.4639744 240 292 Z"/></g><g transform="translate(-46,-102) scale(1,1)"><path fill="none" stroke="#000000" d="M 240 292 C 240 276.5360256 274.0263552 264 316 264 C 357.9736448 264 392 276.5360256 392 292 C 392 307.4639744 357.9736448 320 316 320 C 274.0263552 320 240 307.4639744 240 292 Z" stroke-miterlimit="10"/></g><g transform="translate(-46,-102) scale(1,1)"><g><path fill="none" stroke="none"/><text fill="#000000" stroke="none" font-family="Arial" font-size="13px" font-style="normal" font-weight="bold" text-decoration="none" x="290.70458984375" y="292.5">faire une</text><text fill="#000000" stroke="none" font-family="Arial" font-size="13px" font-style="normal" font-weight="bold" text-decoration="none" x="287.095947265625" y="305.5">recherche</text></g></g><g transform="translate(-46,-102) scale(1,1)"><path fill="#C0C0C0" stroke="none" d="M 239 434.5 C 239 410.4756112 271.2354944 391 311 391 C 350.7645056 391 383 410.4756112 383 434.5 C 383 458.5243888 350.7645056 478 311 478 C 271.2354944 478 239 458.5243888 239 434.5 Z" opacity="0.2"/></g><g transform="translate(-46,-102) scale(1,1)"><path fill="#ffffff" stroke="none" d="M 232 427.5 C 232 403.4756112 264.2354944 384 304 384 C 343.7645056 384 376 403.4756112 376 427.5 C 376 451.5243888 343.7645056 471 304 471 C 264.2354944 471 232 451.5243888 232 427.5 Z"/></g><g transform="translate(-46,-102) scale(1,1)"><path fill="none" stroke="#000000" d="M 232 427.5 C 232 403.4756112 264.2354944 384 304 384 C 343.7645056 384 376 403.4756112 376 427.5 C 376 451.5243888 343.7645056 471 304 471 C 264.2354944 471 232 451.5243888 232 427.5 Z" stroke-miterlimit="10"/></g><g transform="translate(-46,-102) scale(1,1)"><g><path fill="none" stroke="none"/><text fill="#000000" stroke="none" font-family="Arial" font-size="13px" font-style="normal" font-weight="bold" text-decoration="none" x="272.56640625" y="428">choisir une</text><text fill="#000000" stroke="none" font-family="Arial" font-size="13px" font-style="normal" font-weight="bold" text-decoration="none" x="277.260498046875" y="441">catégorie</text></g></g><g transform="translate(-46,-102) scale(1,1)"><path fill="none" stroke="#000000" d="M 107 451 L 278 321" stroke-miterlimit="10"/></g><g transform="translate(-46,-102) scale(1,1)"><path fill="#C0C0C0" stroke="none" d="M 223 535 C 223 512.908608 264.1897984 495 315 495 C 365.8102016 495 407 512.908608 407 535 C 407 557.091392 365.8102016 575 315 575 C 264.1897984 575 223 557.091392 223 535 Z" opacity="0.2"/></g><g transform="translate(-46,-102) scale(1,1)"><path fill="#ffffff" stroke="none" d="M 216 528 C 216 505.908608 257.1897984 488 308 488 C 358.8102016 488 400 505.908608 400 528 C 400 550.091392 358.8102016 568 308 568 C 257.1897984 568 216 550.091392 216 528 Z"/></g><g transform="translate(-46,-102) scale(1,1)"><path fill="none" stroke="#000000" d="M 216 528 C 216 505.908608 257.1897984 488 308 488 C 358.8102016 488 400 505.908608 400 528 C 400 550.091392 358.8102016 568 308 568 C 257.1897984 568 216 550.091392 216 528 Z" stroke-miterlimit="10"/></g><g transform="translate(-46,-102) scale(1,1)"><g><path fill="none" stroke="none"/><text fill="#000000" stroke="none" font-family="Arial" font-size="13px" font-style="normal" font-weight="bold" text-decoration="none" x="259.58642578125" y="528.5">Pouvoir regarder</text><text fill="#000000" stroke="none" font-family="Arial" font-size="13px" font-style="normal" font-weight="bold" text-decoration="none" x="279.095947265625" y="541.5">les details</text></g></g><g transform="translate(-46,-102) scale(1,1)"><path fill="#C0C0C0" stroke="none" d="M 231 182.5 C 231 156.266472 266.81721600000003 135 311 135 C 355.18278399999997 135 391 156.266472 391 182.5 C 391 208.733528 355.18278399999997 230 311 230 C 266.81721600000003 230 231 208.733528 231 182.5 Z" opacity="0.2"/></g><g transform="translate(-46,-102) scale(1,1)"><path fill="#ffffff" stroke="none" d="M 224 175.5 C 224 149.266472 259.81721600000003 128 304 128 C 348.18278399999997 128 384 149.266472 384 175.5 C 384 201.733528 348.18278399999997 223 304 223 C 259.81721600000003 223 224 201.733528 224 175.5 Z"/></g><g transform="translate(-46,-102) scale(1,1)"><path fill="none" stroke="#000000" d="M 224 175.5 C 224 149.266472 259.81721600000003 128 304 128 C 348.18278399999997 128 384 149.266472 384 175.5 C 384 201.733528 348.18278399999997 223 304 223 C 259.81721600000003 223 224 201.733528 224 175.5 Z" stroke-miterlimit="10"/></g><g transform="translate(-46,-102) scale(1,1)"><g><path fill="none" stroke="none"/><text fill="#000000" stroke="none" font-family="Arial" font-size="13px" font-style="normal" font-weight="bold" text-decoration="none" x="255.5927734375" y="182.5">Mettre en favoris</text></g></g><g transform="translate(-46,-102) scale(1,1)"><path fill="#C0C0C0" stroke="none" d="M 263 762.5 C 263 738.4756112 296.1309248 719 337 719 C 377.8690752 719 411 738.4756112 411 762.5 C 411 786.5243888 377.8690752 806 337 806 C 296.1309248 806 263 786.5243888 263 762.5 Z" opacity="0.2"/></g><g transform="translate(-46,-102) scale(1,1)"><path fill="#ffffff" stroke="none" d="M 256 755.5 C 256 731.4756112 289.1309248 712 330 712 C 370.8690752 712 404 731.4756112 404 755.5 C 404 779.5243888 370.8690752 799 330 799 C 289.1309248 799 256 779.5243888 256 755.5 Z"/></g><g transform="translate(-46,-102) scale(1,1)"><path fill="none" stroke="#000000" d="M 256 755.5 C 256 731.4756112 289.1309248 712 330 712 C 370.8690752 712 404 731.4756112 404 755.5 C 404 779.5243888 370.8690752 799 330 799 C 289.1309248 799 256 779.5243888 256 755.5 Z" stroke-miterlimit="10"/></g><g transform="translate(-46,-102) scale(1,1)"><g><path fill="none" stroke="none"/><text fill="#000000" stroke="none" font-family="Arial" font-size="13px" font-style="normal" font-weight="bold" text-decoration="none" x="286.655029296875" y="762.5">voir ses favoris</text></g></g><g transform="translate(-46,-102) scale(1,1)"><path fill="none" stroke="#000000" d="M 107 501 L 291 711" stroke-miterlimit="10"/></g><g transform="translate(-46,-102) scale(1,1)"><path fill="#C0C0C0" stroke="none" d="M 527 266.5 C 527 251.31216799999999 577.1441024 239 639 239 C 700.8558976 239 751 251.31216799999999 751 266.5 C 751 281.687832 700.8558976 294 639 294 C 577.1441024 294 527 281.687832 527 266.5 Z" opacity="0.2"/></g><g transform="translate(-46,-102) scale(1,1)"><path fill="#ffffff" stroke="none" d="M 520 259.5 C 520 244.31216799999999 570.1441024 232 632 232 C 693.8558976 232 744 244.31216799999999 744 259.5 C 744 274.687832 693.8558976 287 632 287 C 570.1441024 287 520 274.687832 520 259.5 Z"/></g><g transform="translate(-46,-102) scale(1,1)"><path fill="none" stroke="#000000" d="M 520 259.5 C 520 244.31216799999999 570.1441024 232 632 232 C 693.8558976 232 744 244.31216799999999 744 259.5 C 744 274.687832 693.8558976 287 632 287 C 570.1441024 287 520 274.687832 520 259.5 Z" stroke-miterlimit="10"/></g><g transform="translate(-46,-102) scale(1,1)"><g><path fill="none" stroke="none"/><text fill="#000000" stroke="none" font-family="Arial" font-size="13px" font-style="normal" font-weight="bold" text-decoration="none" x="565.12109375" y="260">Afficher l'erreur aucune</text><text fill="#000000" stroke="none" font-family="Arial" font-size="13px" font-style="normal" font-weight="bold" text-decoration="none" x="613.569580078125" y="273">entrée</text></g></g><g transform="translate(-46,-102) scale(1,1)"><path fill="none" stroke="#000000" d="M 519 271 L 393 284" stroke-miterlimit="10" stroke-dasharray="3"/></g><g transform="translate(-46,-102) scale(1,1)"><path fill="none" stroke="#000000" d="M 402.67699010484165 278.7697167848388 L 393 284 L 403.5410340535753 287.144296595642" stroke-miterlimit="10"/></g><g transform="translate(-46,-102) scale(1,1)"><g><path fill="none" stroke="none"/><text fill="#000000" stroke="none" font-family="Arial" font-size="13px" font-style="normal" font-weight="normal" text-decoration="none" x="447.5" y="301.5">«extend»</text></g></g><g transform="translate(-46,-102) scale(1,1)"><path fill="none" stroke="#000000" d="M 308 383 L 313 321" stroke-miterlimit="10" stroke-dasharray="3"/></g><g transform="translate(-46,-102) scale(1,1)"><path fill="none" stroke="#000000" d="M 316.37897718132547 331.4681666593574 L 313 321 L 307.9871860469673 330.79140930981237" stroke-miterlimit="10"/></g><g transform="translate(-46,-102) scale(1,1)"><g><path fill="none" stroke="none"/><text fill="#000000" stroke="none" font-family="Arial" font-size="13px" font-style="normal" font-weight="normal" text-decoration="none" x="253.5" y="355.5">«extend»</text></g></g><g transform="translate(-46,-102) scale(1,1)"><path fill="#C0C0C0" stroke="none" d="M 519 758.5 C 519 732.266472 559.5182256 711 609.5 711 C 659.4817744 711 700 732.266472 700 758.5 C 700 784.733528 659.4817744 806 609.5 806 C 559.5182256 806 519 784.733528 519 758.5 Z" opacity="0.2"/></g><g transform="translate(-46,-102) scale(1,1)"><path fill="#ffffff" stroke="none" d="M 512 751.5 C 512 725.266472 552.5182256 704 602.5 704 C 652.4817744 704 693 725.266472 693 751.5 C 693 777.733528 652.4817744 799 602.5 799 C 552.5182256 799 512 777.733528 512 751.5 Z"/></g><g transform="translate(-46,-102) scale(1,1)"><path fill="none" stroke="#000000" d="M 512 751.5 C 512 725.266472 552.5182256 704 602.5 704 C 652.4817744 704 693 725.266472 693 751.5 C 693 777.733528 652.4817744 799 602.5 799 C 552.5182256 799 512 777.733528 512 751.5 Z" stroke-miterlimit="10"/></g><g transform="translate(-46,-102) scale(1,1)"><g><path fill="none" stroke="none"/><text fill="#000000" stroke="none" font-family="Arial" font-size="13px" font-style="normal" font-weight="bold" text-decoration="none" x="547.224609375" y="758.5">Enlever des favoris</text></g></g><g transform="translate(-46,-102) scale(1,1)"><path fill="none" stroke="#000000" d="M 511 752 L 405 754" stroke-miterlimit="10" stroke-dasharray="3"/></g><g transform="translate(-46,-102) scale(1,1)"><path fill="none" stroke="#000000" d="M 415.08145566205394 749.5995168749283 L 405 754 L 415.240277121105 758.0170542046347" stroke-miterlimit="10"/></g><g transform="translate(-46,-102) scale(1,1)"><g><path fill="none" stroke="none"/><text fill="#000000" stroke="none" font-family="Arial" font-size="13px" font-style="normal" font-weight="normal" text-decoration="none" x="431.5" y="788.5">«extend»</text></g></g><g transform="translate(-46,-102) scale(1,1)"><path fill="none" stroke="#000000" d="M 107 478 L 215 505" stroke-miterlimit="10"/></g><g transform="translate(-46,-102) scale(1,1)"><path fill="none" stroke="#000000" d="M 267 224 L 107 436" stroke-miterlimit="10"/></g><g transform="translate(-46,-102) scale(1,1)"><path fill="#C0C0C0" stroke="none" d="M 559 447 C 559 420.4903296 603.77152 399 659 399 C 714.22848 399 759 420.4903296 759 447 C 759 473.5096704 714.22848 495 659 495 C 603.77152 495 559 473.5096704 559 447 Z" opacity="0.2"/></g><g transform="translate(-46,-102) scale(1,1)"><path fill="#ffffff" stroke="none" d="M 552 440 C 552 413.4903296 596.77152 392 652 392 C 707.22848 392 752 413.4903296 752 440 C 752 466.5096704 707.22848 488 652 488 C 596.77152 488 552 466.5096704 552 440 Z"/></g><g transform="translate(-46,-102) scale(1,1)"><path fill="none" stroke="#000000" d="M 552 440 C 552 413.4903296 596.77152 392 652 392 C 707.22848 392 752 413.4903296 752 440 C 752 466.5096704 707.22848 488 652 488 C 596.77152 488 552 466.5096704 552 440 Z" stroke-miterlimit="10"/></g><g transform="translate(-46,-102) scale(1,1)"><g><path fill="none" stroke="none"/><text fill="#000000" stroke="none" font-family="Arial" font-size="13px" font-style="normal" font-weight="bold" text-decoration="none" x="594.91552734375" y="440.5">modifier un élément</text><text fill="#000000" stroke="none" font-family="Arial" font-size="13px" font-style="normal" font-weight="bold" text-decoration="none" x="624.5400390625" y="453.5">de la liste</text></g></g><g transform="translate(-46,-102) scale(1,1)"><path fill="#C0C0C0" stroke="none" d="M 543 663 C 543 645.3268864 593.5918176 631 656 631 C 718.4081824 631 769 645.3268864 769 663 C 769 680.6731136 718.4081824 695 656 695 C 593.5918176 695 543 680.6731136 543 663 Z" opacity="0.2"/></g><g transform="translate(-46,-102) scale(1,1)"><path fill="#ffffff" stroke="none" d="M 536 656 C 536 638.3268864 586.5918176 624 649 624 C 711.4081824 624 762 638.3268864 762 656 C 762 673.6731136 711.4081824 688 649 688 C 586.5918176 688 536 673.6731136 536 656 Z"/></g><g transform="translate(-46,-102) scale(1,1)"><path fill="none" stroke="#000000" d="M 536 656 C 536 638.3268864 586.5918176 624 649 624 C 711.4081824 624 762 638.3268864 762 656 C 762 673.6731136 711.4081824 688 649 688 C 586.5918176 688 536 673.6731136 536 656 Z" stroke-miterlimit="10"/></g><g transform="translate(-46,-102) scale(1,1)"><g><path fill="none" stroke="none"/><text fill="#000000" stroke="none" font-family="Arial" font-size="13px" font-style="normal" font-weight="bold" text-decoration="none" x="591.9091796875" y="656.5">ajouter élément à la</text><text fill="#000000" stroke="none" font-family="Arial" font-size="13px" font-style="normal" font-weight="bold" text-decoration="none" x="637.44091796875" y="669.5">liste</text></g></g><g transform="translate(-46,-102) scale(1,1)"><path fill="#C0C0C0" stroke="none" d="M 559 571 C 559 551.1177472 603.77152 535 659 535 C 714.22848 535 759 551.1177472 759 571 C 759 590.8822528 714.22848 607 659 607 C 603.77152 607 559 590.8822528 559 571 Z" opacity="0.2"/></g><g transform="translate(-46,-102) scale(1,1)"><path fill="#ffffff" stroke="none" d="M 552 564 C 552 544.1177472 596.77152 528 652 528 C 707.22848 528 752 544.1177472 752 564 C 752 583.8822528 707.22848 600 652 600 C 596.77152 600 552 583.8822528 552 564 Z"/></g><g transform="translate(-46,-102) scale(1,1)"><path fill="none" stroke="#000000" d="M 552 564 C 552 544.1177472 596.77152 528 652 528 C 707.22848 528 752 544.1177472 752 564 C 752 583.8822528 707.22848 600 652 600 C 596.77152 600 552 583.8822528 552 564 Z" stroke-miterlimit="10"/></g><g transform="translate(-46,-102) scale(1,1)"><g><path fill="none" stroke="none"/><text fill="#000000" stroke="none" font-family="Arial" font-size="13px" font-style="normal" font-weight="bold" text-decoration="none" x="614.06640625" y="564.5">supprimer un</text><text fill="#000000" stroke="none" font-family="Arial" font-size="13px" font-style="normal" font-weight="bold" text-decoration="none" x="599.609619140625" y="577.5">élément de la liste</text></g></g><g transform="translate(-46,-102) scale(1,1)"><path fill="#C0C0C0" stroke="none" d="M 271 643.5 C 271 618.9233264 306.81721600000003 599 351 599 C 395.18278399999997 599 431 618.9233264 431 643.5 C 431 668.0766736 395.18278399999997 688 351 688 C 306.81721600000003 688 271 668.0766736 271 643.5 Z" opacity="0.2"/></g><g transform="translate(-46,-102) scale(1,1)"><path fill="#ffffff" stroke="none" d="M 264 636.5 C 264 611.9233264 299.81721600000003 592 344 592 C 388.18278399999997 592 424 611.9233264 424 636.5 C 424 661.0766736 388.18278399999997 681 344 681 C 299.81721600000003 681 264 661.0766736 264 636.5 Z"/></g><g transform="translate(-46,-102) scale(1,1)"><path fill="none" stroke="#000000" d="M 264 636.5 C 264 611.9233264 299.81721600000003 592 344 592 C 388.18278399999997 592 424 611.9233264 424 636.5 C 424 661.0766736 388.18278399999997 681 344 681 C 299.81721600000003 681 264 661.0766736 264 636.5 Z" stroke-miterlimit="10"/></g><g transform="translate(-46,-102) scale(1,1)"><g><path fill="none" stroke="none"/><text fill="#000000" stroke="none" font-family="Arial" font-size="13px" font-style="normal" font-weight="bold" text-decoration="none" x="307.155029296875" y="624">Gérer la liste</text><text fill="#000000" stroke="none" font-family="Arial" font-size="13px" font-style="normal" font-weight="bold" text-decoration="none" x="333.52001953125" y="637">des</text><text fill="#000000" stroke="none" font-family="Arial" font-size="13px" font-style="normal" font-weight="bold" text-decoration="none" x="299.188720703125" y="650">personnages et</text><text fill="#000000" stroke="none" font-family="Arial" font-size="13px" font-style="normal" font-weight="bold" text-decoration="none" x="316.905029296875" y="663">créatures</text></g></g><g transform="translate(-46,-102) scale(1,1)"><path fill="none" stroke="#000000" d="M 575 489 L 415 591" stroke-miterlimit="10" stroke-dasharray="3"/></g><g transform="translate(-46,-102) scale(1,1)"><path fill="none" stroke="#000000" d="M 421.3065866825686 581.9873996862588 L 415 591 L 425.83230100735545 589.0865594114147" stroke-miterlimit="10"/></g><g transform="translate(-46,-102) scale(1,1)"><g><path fill="none" stroke="none"/><text fill="#000000" stroke="none" font-family="Arial" font-size="13px" font-style="normal" font-weight="normal" text-decoration="none" x="484.5" y="571.5">«extend»</text></g></g><g transform="translate(-46,-102) scale(1,1)"><path fill="none" stroke="#000000" d="M 551 588 L 425 617" stroke-miterlimit="10" stroke-dasharray="3"/></g><g transform="translate(-46,-102) scale(1,1)"><path fill="none" stroke="#000000" d="M 433.95957185998685 610.6183017866925 L 425 617 L 435.8479161008407 618.8228319366091" stroke-miterlimit="10"/></g><g transform="translate(-46,-102) scale(1,1)"><g><path fill="none" stroke="none"/><text fill="#000000" stroke="none" font-family="Arial" font-size="13px" font-style="normal" font-weight="normal" text-decoration="none" x="467.5" y="637.5">«extend»</text></g></g><g transform="translate(-46,-102) scale(1,1)"><path fill="none" stroke="#000000" d="M 535 649 L 425 641" stroke-miterlimit="10" stroke-dasharray="3"/></g><g transform="translate(-46,-102) scale(1,1)"><path fill="none" stroke="#000000" d="M 435.44124481118683 637.5387275760403 L 425 641 L 434.83056421253497 645.9355858075031" stroke-miterlimit="10"/></g><g transform="translate(-46,-102) scale(1,1)"><g><path fill="none" stroke="none"/><text fill="#000000" stroke="none" font-family="Arial" font-size="13px" font-style="normal" font-weight="normal" text-decoration="none" x="450.5" y="680.5">«extend»</text></g></g><g transform="translate(-46,-102) scale(1,1)"><path fill="none" stroke="#000000" d="M 272 591 L 107 487" stroke-miterlimit="10"/></g></g></svg>