<svg version="1.1" xmlns="http://www.w3.org/2000/svg" xmlns:xlink="http://www.w3.org/1999/xlink" width="796" height="740"><defs/><g><text fill="#eeeeee" stroke="none" font-family="Arial" font-size="24px" font-style="normal" font-weight="normal" text-decoration="none" x="0" y="0">UNREGISTERED</text><text fill="#eeeeee" stroke="none" font-family="Arial" font-size="24px" font-style="normal" font-weight="normal" text-decoration="none" x="0" y="30">UNREGISTERED</text><text fill="#eeeeee" stroke="none" font-family="Arial" font-size="24px" font-style="normal" font-weight="normal" text-decoration="none" x="0" y="60">UNREGISTERED</text><text fill="#eeeeee" stroke="none" font-family="Arial" font-size="24px" font-style="normal" font-weight="normal" text-decoration="none" x="0" y="90">UNREGISTERED</text><text fill="#eeeeee" stroke="none" font-family="Arial" font-size="24px" font-style="normal" font-weight="normal" text-decoration="none" x="0" y="120">UNREGISTERED</text><text fill="#eeeeee" stroke="none" font-family="Arial" font-size="24px" font-style="normal" font-weight="normal" text-decoration="none" x="0" y="150">UNREGISTERED</text><text fill="#eeeeee" stroke="none" font-family="Arial" font-size="24px" font-style="normal" font-weight="normal" text-decoration="none" x="0" y="180">UNREGISTERED</text><text fill="#eeeeee" stroke="none" font-family="Arial" font-size="24px" font-style="normal" font-weight="normal" text-decoration="none" x="0" y="210">UNREGISTERED</text><text fill="#eeeeee" stroke="none" font-family="Arial" font-size="24px" font-style="normal" font-weight="normal" text-decoration="none" x="0" y="240">UNREGISTERED</text><text fill="#eeeeee" stroke="none" font-family="Arial" font-size="24px" font-style="normal" font-weight="normal" text-decoration="none" x="0" y="270">UNREGISTERED</text><text fill="#eeeeee" stroke="none" font-family="Arial" font-size="24px" font-style="normal" font-weight="normal" text-decoration="none" x="0" y="300">UNREGISTERED</text><text fill="#eeeeee" stroke="none" font-family="Arial" font-size="24px" font-style="normal" font-weight="normal" text-decoration="none" x="0" y="330">UNREGISTERED</text><text fill="#eeeeee" stroke="none" font-family="Arial" font-size="24px" font-style="normal" font-weight="normal" text-decoration="none" x="0" y="360">UNREGISTERED</text><text fill="#eeeeee" stroke="none" font-family="Arial" font-size="24px" font-style="normal" font-weight="normal" text-decoration="none" x="0" y="390">UNREGISTERED</text><text fill="#eeeeee" stroke="none" font-family="Arial" font-size="24px" font-style="normal" font-weight="normal" text-decoration="none" x="0" y="420">UNREGISTERED</text><text fill="#eeeeee" stroke="none" font-family="Arial" font-size="24px" font-style="normal" font-weight="normal" text-decoration="none" x="0" y="450">UNREGISTERED</text><text fill="#eeeeee" stroke="none" font-family="Arial" font-size="24px" font-style="normal" font-weight="normal" text-decoration="none" x="0" y="480">UNREGISTERED</text><text fill="#eeeeee" stroke="none" font-family="Arial" font-size="24px" font-style="normal" font-weight="normal" text-decoration="none" x="0" y="510">UNREGISTERED</text><text fill="#eeeeee" stroke="none" font-family="Arial" font-size="24px" font-style="normal" font-weight="normal" text-decoration="none" x="0" y="540">UNREGISTERED</text><text fill="#eeeeee" stroke="none" font-family="Arial" font-size="24px" font-style="normal" font-weight="normal" text-decoration="none" x="0" y="570">UNREGISTERED</text><text fill="#eeeeee" stroke="none" font-family="Arial" font-size="24px" font-style="normal" font-weight="normal" text-decoration="none" x="0" y="600">UNREGISTERED</text><text fill="#eeeeee" stroke="none" font-family="Arial" font-size="24px" font-style="normal" font-weight="normal" text-decoration="none" x="0" y="630">UNREGISTERED</text><text fill="#eeeeee" stroke="none" font-family="Arial" font-size="24px" font-style="normal" font-weight="normal" text-decoration="none" x="0" y="660">UNREGISTERED</text><text fill="#eeeeee" stroke="none" font-family="Arial" font-size="24px" font-style="normal" font-weight="normal" text-decoration="none" x="0" y="690">UNREGISTERED</text><text fill="#eeeeee" stroke="none" font-family="Arial" font-size="24px" font-style="normal" font-weight="normal" text-decoration="none" x="0" y="720">UNREGISTERED</text><text fill="#eeeeee" stroke="none" font-family="Arial" font-size="24px" font-style="normal" font-weight="normal" text-decoration="none" x="200" y="0">UNREGISTERED</text><text fill="#eeeeee" stroke="none" font-family="Arial" font-size="24px" font-style="normal" font-weight="normal" text-decoration="none" x="200" y="30">UNREGISTERED</text><text fill="#eeeeee" stroke="none" font-family="Arial" font-size="24px" font-style="normal" font-weight="normal" text-decoration="none" x="200" y="60">UNREGISTERED</text><text fill="#eeeeee" stroke="none" font-family="Arial" font-size="24px" font-style="normal" font-weight="normal" text-decoration="none" x="200" y="90">UNREGISTERED</text><text fill="#eeeeee" stroke="none" font-family="Arial" font-size="24px" font-style="normal" font-weight="normal" text-decoration="none" x="200" y="120">UNREGISTERED</text><text fill="#eeeeee" stroke="none" font-family="Arial" font-size="24px" font-style="normal" font-weight="normal" text-decoration="none" x="200" y="150">UNREGISTERED</text><text fill="#eeeeee" stroke="none" font-family="Arial" font-size="24px" font-style="normal" font-weight="normal" text-decoration="none" x="200" y="180">UNREGISTERED</text><text fill="#eeeeee" stroke="none" font-family="Arial" font-size="24px" font-style="normal" font-weight="normal" text-decoration="none" x="200" y="210">UNREGISTERED</text><text fill="#eeeeee" stroke="none" font-family="Arial" font-size="24px" font-style="normal" font-weight="normal" text-decoration="none" x="200" y="240">UNREGISTERED</text><text fill="#eeeeee" stroke="none" font-family="Arial" font-size="24px" font-style="normal" font-weight="normal" text-decoration="none" x="200" y="270">UNREGISTERED</text><text fill="#eeeeee" stroke="none" font-family="Arial" font-size="24px" font-style="normal" font-weight="normal" text-decoration="none" x="200" y="300">UNREGISTERED</text><text fill="#eeeeee" stroke="none" font-family="Arial" font-size="24px" font-style="normal" font-weight="normal" text-decoration="none" x="200" y="330">UNREGISTERED</text><text fill="#eeeeee" stroke="none" font-family="Arial" font-size="24px" font-style="normal" font-weight="normal" text-decoration="none" x="200" y="360">UNREGISTERED</text><text fill="#eeeeee" stroke="none" font-family="Arial" font-size="24px" font-style="normal" font-weight="normal" text-decoration="none" x="200" y="390">UNREGISTERED</text><text fill="#eeeeee" stroke="none" font-family="Arial" font-size="24px" font-style="normal" font-weight="normal" text-decoration="none" x="200" y="420">UNREGISTERED</text><text fill="#eeeeee" stroke="none" font-family="Arial" font-size="24px" font-style="normal" font-weight="normal" text-decoration="none" x="200" y="450">UNREGISTERED</text><text fill="#eeeeee" stroke="none" font-family="Arial" font-size="24px" font-style="normal" font-weight="normal" text-decoration="none" x="200" y="480">UNREGISTERED</text><text fill="#eeeeee" stroke="none" font-family="Arial" font-size="24px" font-style="normal" font-weight="normal" text-decoration="none" x="200" y="510">UNREGISTERED</text><text fill="#eeeeee" stroke="none" font-family="Arial" font-size="24px" font-style="normal" font-weight="normal" text-decoration="none" x="200" y="540">UNREGISTERED</text><text fill="#eeeeee" stroke="none" font-family="Arial" font-size="24px" font-style="normal" font-weight="normal" text-decoration="none" x="200" y="570">UNREGISTERED</text><text fill="#eeeeee" stroke="none" font-family="Arial" font-size="24px" font-style="normal" font-weight="normal" text-decoration="none" x="200" y="600">UNREGISTERED</text><text fill="#eeeeee" stroke="none" font-family="Arial" font-size="24px" font-style="normal" font-weight="normal" text-decoration="none" x="200" y="630">UNREGISTERED</text><text fill="#eeeeee" stroke="none" font-family="Arial" font-size="24px" font-style="normal" font-weight="normal" text-decoration="none" x="200" y="660">UNREGISTERED</text><text fill="#eeeeee" stroke="none" font-family="Arial" font-size="24px" font-style="normal" font-weight="normal" text-decoration="none" x="200" y="690">UNREGISTERED</text><text fill="#eeeeee" stroke="none" font-family="Arial" font-size="24px" font-style="normal" font-weight="normal" text-decoration="none" x="200" y="720">UNREGISTERED</text><text fill="#eeeeee" stroke="none" font-family="Arial" font-size="24px" font-style="normal" font-weight="normal" text-decoration="none" x="400" y="0">UNREGISTERED</text><text fill="#eeeeee" stroke="none" font-family="Arial" font-size="24px" font-style="normal" font-weight="normal" text-decoration="none" x="400" y="30">UNREGISTERED</text><text fill="#eeeeee" stroke="none" font-family="Arial" font-size="24px" font-style="normal" font-weight="normal" text-decoration="none" x="400" y="60">UNREGISTERED</text><text fill="#eeeeee" stroke="none" font-family="Arial" font-size="24px" font-style="normal" font-weight="normal" text-decoration="none" x="400" y="90">UNREGISTERED</text><text fill="#eeeeee" stroke="none" font-family="Arial" font-size="24px" font-style="normal" font-weight="normal" text-decoration="none" x="400" y="120">UNREGISTERED</text><text fill="#eeeeee" stroke="none" font-family="Arial" font-size="24px" font-style="normal" font-weight="normal" text-decoration="none" x="400" y="150">UNREGISTERED</text><text fill="#eeeeee" stroke="none" font-family="Arial" font-size="24px" font-style="normal" font-weight="normal" text-decoration="none" x="400" y="180">UNREGISTERED</text><text fill="#eeeeee" stroke="none" font-family="Arial" font-size="24px" font-style="normal" font-weight="normal" text-decoration="none" x="400" y="210">UNREGISTERED</text><text fill="#eeeeee" stroke="none" font-family="Arial" font-size="24px" font-style="normal" font-weight="normal" text-decoration="none" x="400" y="240">UNREGISTERED</text><text fill="#eeeeee" stroke="none" font-family="Arial" font-size="24px" font-style="normal" font-weight="normal" text-decoration="none" x="400" y="270">UNREGISTERED</text><text fill="#eeeeee" stroke="none" font-family="Arial" font-size="24px" font-style="normal" font-weight="normal" text-decoration="none" x="400" y="300">UNREGISTERED</text><text fill="#eeeeee" stroke="none" font-family="Arial" font-size="24px" font-style="normal" font-weight="normal" text-decoration="none" x="400" y="330">UNREGISTERED</text><text fill="#eeeeee" stroke="none" font-family="Arial" font-size="24px" font-style="normal" font-weight="normal" text-decoration="none" x="400" y="360">UNREGISTERED</text><text fill="#eeeeee" stroke="none" font-family="Arial" font-size="24px" font-style="normal" font-weight="normal" text-decoration="none" x="400" y="390">UNREGISTERED</text><text fill="#eeeeee" stroke="none" font-family="Arial" font-size="24px" font-style="normal" font-weight="normal" text-decoration="none" x="400" y="420">UNREGISTERED</text><text fill="#eeeeee" stroke="none" font-family="Arial" font-size="24px" font-style="normal" font-weight="normal" text-decoration="none" x="400" y="450">UNREGISTERED</text><text fill="#eeeeee" stroke="none" font-family="Arial" font-size="24px" font-style="normal" font-weight="normal" text-decoration="none" x="400" y="480">UNREGISTERED</text><text fill="#eeeeee" stroke="none" font-family="Arial" font-size="24px" font-style="normal" font-weight="normal" text-decoration="none" x="400" y="510">UNREGISTERED</text><text fill="#eeeeee" stroke="none" font-family="Arial" font-size="24px" font-style="normal" font-weight="normal" text-decoration="none" x="400" y="540">UNREGISTERED</text><text fill="#eeeeee" stroke="none" font-family="Arial" font-size="24px" font-style="normal" font-weight="normal" text-decoration="none" x="400" y="570">UNREGISTERED</text><text fill="#eeeeee" stroke="none" font-family="Arial" font-size="24px" font-style="normal" font-weight="normal" text-decoration="none" x="400" y="600">UNREGISTERED</text><text fill="#eeeeee" stroke="none" font-family="Arial" font-size="24px" font-style="normal" font-weight="normal" text-decoration="none" x="400" y="630">UNREGISTERED</text><text fill="#eeeeee" stroke="none" font-family="Arial" font-size="24px" font-style="normal" font-weight="normal" text-decoration="none" x="400" y="660">UNREGISTERED</text><text fill="#eeeeee" stroke="none" font-family="Arial" font-size="24px" font-style="normal" font-weight="normal" text-decoration="none" x="400" y="690">UNREGISTERED</text><text fill="#eeeeee" stroke="none" font-family="Arial" font-size="24px" font-style="normal" font-weight="normal" text-decoration="none" x="400" y="720">UNREGISTERED</text><text fill="#eeeeee" stroke="none" font-family="Arial" font-size="24px" font-style="normal" font-weight="normal" text-decoration="none" x="600" y="0">UNREGISTERED</text><text fill="#eeeeee" stroke="none" font-family="Arial" font-size="24px" font-style="normal" font-weight="normal" text-decoration="none" x="600" y="30">UNREGISTERED</text><text fill="#eeeeee" stroke="none" font-family="Arial" font-size="24px" font-style="normal" font-weight="normal" text-decoration="none" x="600" y="60">UNREGISTERED</text><text fill="#eeeeee" stroke="none" font-family="Arial" font-size="24px" font-style="normal" font-weight="normal" text-decoration="none" x="600" y="90">UNREGISTERED</text><text fill="#eeeeee" stroke="none" font-family="Arial" font-size="24px" font-style="normal" font-weight="normal" text-decoration="none" x="600" y="120">UNREGISTERED</text><text fill="#eeeeee" stroke="none" font-family="Arial" font-size="24px" font-style="normal" font-weight="normal" text-decoration="none" x="600" y="150">UNREGISTERED</text><text fill="#eeeeee" stroke="none" font-family="Arial" font-size="24px" font-style="normal" font-weight="normal" text-decoration="none" x="600" y="180">UNREGISTERED</text><text fill="#eeeeee" stroke="none" font-family="Arial" font-size="24px" font-style="normal" font-weight="normal" text-decoration="none" x="600" y="210">UNREGISTERED</text><text fill="#eeeeee" stroke="none" font-family="Arial" font-size="24px" font-style="normal" font-weight="normal" text-decoration="none" x="600" y="240">UNREGISTERED</text><text fill="#eeeeee" stroke="none" font-family="Arial" font-size="24px" font-style="normal" font-weight="normal" text-decoration="none" x="600" y="270">UNREGISTERED</text><text fill="#eeeeee" stroke="none" font-family="Arial" font-size="24px" font-style="normal" font-weight="normal" text-decoration="none" x="600" y="300">UNREGISTERED</text><text fill="#eeeeee" stroke="none" font-family="Arial" font-size="24px" font-style="normal" font-weight="normal" text-decoration="none" x="600" y="330">UNREGISTERED</text><text fill="#eeeeee" stroke="none" font-family="Arial" font-size="24px" font-style="normal" font-weight="normal" text-decoration="none" x="600" y="360">UNREGISTERED</text><text fill="#eeeeee" stroke="none" font-family="Arial" font-size="24px" font-style="normal" font-weight="normal" text-decoration="none" x="600" y="390">UNREGISTERED</text><text fill="#eeeeee" stroke="none" font-family="Arial" font-size="24px" font-style="normal" font-weight="normal" text-decoration="none" x="600" y="420">UNREGISTERED</text><text fill="#eeeeee" stroke="none" font-family="Arial" font-size="24px" font-style="normal" font-weight="normal" text-decoration="none" x="600" y="450">UNREGISTERED</text><text fill="#eeeeee" stroke="none" font-family="Arial" font-size="24px" font-style="normal" font-weight="normal" text-decoration="none" x="600" y="480">UNREGISTERED</text><text fill="#eeeeee" stroke="none" font-family="Arial" font-size="24px" font-style="normal" font-weight="normal" text-decoration="none" x="600" y="510">UNREGISTERED</text><text fill="#eeeeee" stroke="none" font-family="Arial" font-size="24px" font-style="normal" font-weight="normal" text-decoration="none" x="600" y="540">UNREGISTERED</text><text fill="#eeeeee" stroke="none" font-family="Arial" font-size="24px" font-style="normal" font-weight="normal" text-decoration="none" x="600" y="570">UNREGISTERED</text><text fill="#eeeeee" stroke="none" font-family="Arial" font-size="24px" font-style="normal" font-weight="normal" text-decoration="none" x="600" y="600">UNREGISTERED</text><text fill="#eeeeee" stroke="none" font-family="Arial" font-size="24px" font-style="normal" font-weight="normal" text-decoration="none" x="600" y="630">UNREGISTERED</text><text fill="#eeeeee" stroke="none" font-family="Arial" font-size="24px" font-style="normal" font-weight="normal" text-decoration="none" x="600" y="660">UNREGISTERED</text><text fill="#eeeeee" stroke="none" font-family="Arial" font-size="24px" font-style="normal" font-weight="normal" text-decoration="none" x="600" y="690">UNREGISTERED</text><text fill="#eeeeee" stroke="none" font-family="Arial" font-size="24px" font-style="normal" font-weight="normal" text-decoration="none" x="600" y="720">UNREGISTERED</text><g transform="translate(-46,-102) scale(1,1)"><rect fill="#C0C0C0" stroke="none" x="207" y="119" width="632" height="720" opacity="0.2"/></g><g transform="translate(-46,-102) scale(1,1)"><rect fill="#ffffff" stroke="none" x="200" y="112" width="632" height="720"/></g><g transform="translate(-46,-102) scale(1,1)"><path fill="none" stroke="#000000" d="M 200 112 L 832 112 L 832 832 L 200 832 L 200 112 Z Z" stroke-miterlimit="10"/></g><g transform="translate(-46,-102) scale(1,1)"><g><path fill="none" stroke="none"/><text fill="#000000" stroke="none" font-family="Arial" font-size="13px" font-style="normal" font-weight="bold" text-decoration="none" x="435.44189453125" y="131.5">Master-details Resident Evil</text></g></g><g transform="translate(-46,-102) scale(1,1)"><path fill="#ffffff" stroke="none" d="M 72.40935031960227 441.68 C 72.40935031960227 436.886167936 76.29519264454773 433 81.088623046875 433 C 85.88205344920227 433 89.76789577414773 436.886167936 89.76789577414773 441.68 C 89.76789577414773 446.473832064 85.88205344920227 450.36 81.088623046875 450.36 C 76.29519264454773 450.36 72.40935031960227 446.473832064 72.40935031960227 441.68 Z"/></g><g transform="translate(-46,-102) scale(1,1)"><path fill="none" stroke="#000000" d="M 72.40935031960227 441.68 C 72.40935031960227 436.886167936 76.29519264454773 433 81.088623046875 433 C 85.88205344920227 433 89.76789577414773 436.886167936 89.76789577414773 441.68 C 89.76789577414773 446.473832064 85.88205344920227 450.36 81.088623046875 450.36 C 76.29519264454773 450.36 72.40935031960227 446.473832064 72.40935031960227 441.68 Z" stroke-miterlimit="10"/></g><g transform="translate(-46,-102) scale(1,1)"><path fill="none" stroke="#000000" d="M 81.088623046875 450.36 L 81.088623046875 467.64" stroke-miterlimit="10"/></g><g transform="translate(-46,-102) scale(1,1)"><path fill="none" stroke="#000000" d="M 71.89880486505682 456.84 L 90.27844122869318 456.84" stroke-miterlimit="10"/></g><g transform="translate(-46,-102) scale(1,1)"><path fill="none" stroke="#000000" d="M 81.088623046875 467.64 L 68.32498668323863 485" stroke-miterlimit="10"/></g><g transform="translate(-46,-102) scale(1,1)"><path fill="none" stroke="#000000" d="M 81.088623046875 467.64 L 93.85225941051137 485" stroke-miterlimit="10"/></g><g transform="translate(-46,-102) scale(1,1)"><g><path fill="none" stroke="none"/><text fill="#000000" stroke="none" font-family="Arial" font-size="13px" font-style="normal" font-weight="bold" text-decoration="none" x="64.470458984375" y="505.5">Client</text></g></g><g transform="translate(-46,-102) scale(1,1)"><path fill="#C0C0C0" stroke="none" d="M 255 299 C 255 283.5360256 289.0263552 271 331 271 C 372.9736448 271 407 283.5360256 407 299 C 407 314.4639744 372.9736448 327 331 327 C 289.0263552 327 255 314.4639744 255 299 Z" opacity="0.2"/></g><g transform="translate(-46,-102) scale(1,1)"><path fill="#ffffff" stroke="none" d="M 248 292 C 248 276.5360256 282.0263552 264 324 264 C 365.9736448 264 400 276.5360256 400 292 C 400 307.4639744 365.9736448 320 324 320 C 282.0263552 320 248 307.4639744 248 292 Z"/></g><g transform="translate(-46,-102) scale(1,1)"><path fill="none" stroke="#000000" d="M 248 292 C 248 276.5360256 282.0263552 264 324 264 C 365.9736448 264 400 276.5360256 400 292 C 400 307.4639744 365.9736448 320 324 320 C 282.0263552 320 248 307.4639744 248 292 Z" stroke-miterlimit="10"/></g><g transform="translate(-46,-102) scale(1,1)"><g><path fill="none" stroke="none"/><text fill="#000000" stroke="none" font-family="Arial" font-size="13px" font-style="normal" font-weight="bold" text-decoration="none" x="298.70458984375" y="292.5">faire une</text><text fill="#000000" stroke="none" font-family="Arial" font-size="13px" font-style="normal" font-weight="bold" text-decoration="none" x="295.095947265625" y="305.5">recherche</text></g></g><g transform="translate(-46,-102) scale(1,1)"><path fill="#C0C0C0" stroke="none" d="M 255 458.5 C 255 434.4756112 287.2354944 415 327 415 C 366.7645056 415 399 434.4756112 399 458.5 C 399 482.5243888 366.7645056 502 327 502 C 287.2354944 502 255 482.5243888 255 458.5 Z" opacity="0.2"/></g><g transform="translate(-46,-102) scale(1,1)"><path fill="#ffffff" stroke="none" d="M 248 451.5 C 248 427.4756112 280.2354944 408 320 408 C 359.7645056 408 392 427.4756112 392 451.5 C 392 475.5243888 359.7645056 495 320 495 C 280.2354944 495 248 475.5243888 248 451.5 Z"/></g><g transform="translate(-46,-102) scale(1,1)"><path fill="none" stroke="#000000" d="M 248 451.5 C 248 427.4756112 280.2354944 408 320 408 C 359.7645056 408 392 427.4756112 392 451.5 C 392 475.5243888 359.7645056 495 320 495 C 280.2354944 495 248 475.5243888 248 451.5 Z" stroke-miterlimit="10"/></g><g transform="translate(-46,-102) scale(1,1)"><g><path fill="none" stroke="none"/><text fill="#000000" stroke="none" font-family="Arial" font-size="13px" font-style="normal" font-weight="bold" text-decoration="none" x="288.56640625" y="452">choisir une</text><text fill="#000000" stroke="none" font-family="Arial" font-size="13px" font-style="normal" font-weight="bold" text-decoration="none" x="293.260498046875" y="465">catégorie</text></g></g><g transform="translate(-46,-102) scale(1,1)"><path fill="#C0C0C0" stroke="none" d="M 479 369 C 479 354.6405952 518.8466528 343 568 343 C 617.1533472 343 657 354.6405952 657 369 C 657 383.3594048 617.1533472 395 568 395 C 518.8466528 395 479 383.3594048 479 369 Z" opacity="0.2"/></g><g transform="translate(-46,-102) scale(1,1)"><path fill="#ffffff" stroke="none" d="M 472 362 C 472 347.6405952 511.8466528 336 561 336 C 610.1533472 336 650 347.6405952 650 362 C 650 376.3594048 610.1533472 388 561 388 C 511.8466528 388 472 376.3594048 472 362 Z"/></g><g transform="translate(-46,-102) scale(1,1)"><path fill="none" stroke="#000000" d="M 472 362 C 472 347.6405952 511.8466528 336 561 336 C 610.1533472 336 650 347.6405952 650 362 C 650 376.3594048 610.1533472 388 561 388 C 511.8466528 388 472 376.3594048 472 362 Z" stroke-miterlimit="10"/></g><g transform="translate(-46,-102) scale(1,1)"><g><path fill="none" stroke="none"/><text fill="#000000" stroke="none" font-family="Arial" font-size="13px" font-style="normal" font-weight="bold" text-decoration="none" x="531.7373046875" y="362.5">Choisir un</text><text fill="#000000" stroke="none" font-family="Arial" font-size="13px" font-style="normal" font-weight="bold" text-decoration="none" x="537.87548828125" y="375.5">élément</text></g></g><g transform="translate(-46,-102) scale(1,1)"><path fill="none" stroke="#000000" d="M 107 452 L 285 321" stroke-miterlimit="10"/></g><g transform="translate(-46,-102) scale(1,1)"><path fill="none" stroke="#000000" d="M 247 457 L 107 469" stroke-miterlimit="10"/></g><g transform="translate(-46,-102) scale(1,1)"><path fill="none" stroke="#000000" d="M 471 335 L 401 315" stroke-miterlimit="10" stroke-dasharray="3"/></g><g transform="translate(-46,-102) scale(1,1)"><path fill="none" stroke="#000000" d="M 411.92809871352966 313.7443493689122 L 401 315 L 409.61521178185615 321.8394536297695" stroke-miterlimit="10"/></g><g transform="translate(-46,-102) scale(1,1)"><g><path fill="none" stroke="none"/><text fill="#000000" stroke="none" font-family="Arial" font-size="13px" font-style="normal" font-weight="normal" text-decoration="none" x="400.5" y="359.5">«extend»</text></g></g><g transform="translate(-46,-102) scale(1,1)"><path fill="#C0C0C0" stroke="none" d="M 591 522.5 C 591 507.312168 639.129384 495 698.5 495 C 757.870616 495 806 507.312168 806 522.5 C 806 537.687832 757.870616 550 698.5 550 C 639.129384 550 591 537.687832 591 522.5 Z" opacity="0.2"/></g><g transform="translate(-46,-102) scale(1,1)"><path fill="#ffffff" stroke="none" d="M 584 515.5 C 584 500.312168 632.129384 488 691.5 488 C 750.870616 488 799 500.312168 799 515.5 C 799 530.687832 750.870616 543 691.5 543 C 632.129384 543 584 530.687832 584 515.5 Z"/></g><g transform="translate(-46,-102) scale(1,1)"><path fill="none" stroke="#000000" d="M 584 515.5 C 584 500.312168 632.129384 488 691.5 488 C 750.870616 488 799 500.312168 799 515.5 C 799 530.687832 750.870616 543 691.5 543 C 632.129384 543 584 530.687832 584 515.5 Z" stroke-miterlimit="10"/></g><g transform="translate(-46,-102) scale(1,1)"><g><path fill="none" stroke="none"/><text fill="#000000" stroke="none" font-family="Arial" font-size="13px" font-style="normal" font-weight="bold" text-decoration="none" x="632.971435546875" y="516">Pouvoir regarder les</text><text fill="#000000" stroke="none" font-family="Arial" font-size="13px" font-style="normal" font-weight="bold" text-decoration="none" x="672.7109375" y="529">details</text></g></g><g transform="translate(-46,-102) scale(1,1)"><path fill="none" stroke="#000000" d="M 667 487 L 584 389" stroke-miterlimit="10" stroke-dasharray="3"/></g><g transform="translate(-46,-102) scale(1,1)"><path fill="none" stroke="#000000" d="M 593.7802921200274 394.0344697880641 L 584 389 L 587.3558031532378 399.4756186068756" stroke-miterlimit="10"/></g><g transform="translate(-46,-102) scale(1,1)"><g><path fill="none" stroke="none"/><text fill="#000000" stroke="none" font-family="Arial" font-size="13px" font-style="normal" font-weight="normal" text-decoration="none" x="573.5" y="463.5">«include»</text></g></g><g transform="translate(-46,-102) scale(1,1)"><path fill="none" stroke="#000000" d="M 488 389 L 393 424" stroke-miterlimit="10" stroke-dasharray="3"/></g><g transform="translate(-46,-102) scale(1,1)"><path fill="none" stroke="#000000" d="M 401.08082315476827 416.53673683022225 L 393 424 L 403.99132884743557 424.4366808531763" stroke-miterlimit="10"/></g><g transform="translate(-46,-102) scale(1,1)"><g><path fill="none" stroke="none"/><text fill="#000000" stroke="none" font-family="Arial" font-size="13px" font-style="normal" font-weight="normal" text-decoration="none" x="423.5" y="440.5">«extend»</text></g></g><g transform="translate(-46,-102) scale(1,1)"><path fill="#C0C0C0" stroke="none" d="M 407 642.5 C 407 618.4756112 457.1441024 599 519 599 C 580.8558976 599 631 618.4756112 631 642.5 C 631 666.5243888 580.8558976 686 519 686 C 457.1441024 686 407 666.5243888 407 642.5 Z" opacity="0.2"/></g><g transform="translate(-46,-102) scale(1,1)"><path fill="#ffffff" stroke="none" d="M 400 635.5 C 400 611.4756112 450.1441024 592 512 592 C 573.8558976 592 624 611.4756112 624 635.5 C 624 659.5243888 573.8558976 679 512 679 C 450.1441024 679 400 659.5243888 400 635.5 Z"/></g><g transform="translate(-46,-102) scale(1,1)"><path fill="none" stroke="#000000" d="M 400 635.5 C 400 611.4756112 450.1441024 592 512 592 C 573.8558976 592 624 611.4756112 624 635.5 C 624 659.5243888 573.8558976 679 512 679 C 450.1441024 679 400 659.5243888 400 635.5 Z" stroke-miterlimit="10"/></g><g transform="translate(-46,-102) scale(1,1)"><g><path fill="none" stroke="none"/><text fill="#000000" stroke="none" font-family="Arial" font-size="13px" font-style="normal" font-weight="bold" text-decoration="none" x="445.52734375" y="636">Cliquer sur un lien vers</text><text fill="#000000" stroke="none" font-family="Arial" font-size="13px" font-style="normal" font-weight="bold" text-decoration="none" x="463.21826171875" y="649">un autre élément</text></g></g><g transform="translate(-46,-102) scale(1,1)"><path fill="none" stroke="#000000" d="M 578 591 L 648 544" stroke-miterlimit="10" stroke-dasharray="3"/></g><g transform="translate(-46,-102) scale(1,1)"><path fill="none" stroke="#000000" d="M 641.909261698533 553.1598529978947 L 648 544 L 637.2162034751167 546.1701918140833" stroke-miterlimit="10"/></g><g transform="translate(-46,-102) scale(1,1)"><g><path fill="none" stroke="none"/><text fill="#000000" stroke="none" font-family="Arial" font-size="13px" font-style="normal" font-weight="normal" text-decoration="none" x="568.5" y="572.5">«extend»</text></g></g></g></svg>