<svg version="1.1" xmlns="http://www.w3.org/2000/svg" xmlns:xlink="http://www.w3.org/1999/xlink" width="619" height="531"><defs/><g><text fill="#eeeeee" stroke="none" font-family="Arial" font-size="24px" font-style="normal" font-weight="normal" text-decoration="none" x="0" y="0">UNREGISTERED</text><text fill="#eeeeee" stroke="none" font-family="Arial" font-size="24px" font-style="normal" font-weight="normal" text-decoration="none" x="0" y="30">UNREGISTERED</text><text fill="#eeeeee" stroke="none" font-family="Arial" font-size="24px" font-style="normal" font-weight="normal" text-decoration="none" x="0" y="60">UNREGISTERED</text><text fill="#eeeeee" stroke="none" font-family="Arial" font-size="24px" font-style="normal" font-weight="normal" text-decoration="none" x="0" y="90">UNREGISTERED</text><text fill="#eeeeee" stroke="none" font-family="Arial" font-size="24px" font-style="normal" font-weight="normal" text-decoration="none" x="0" y="120">UNREGISTERED</text><text fill="#eeeeee" stroke="none" font-family="Arial" font-size="24px" font-style="normal" font-weight="normal" text-decoration="none" x="0" y="150">UNREGISTERED</text><text fill="#eeeeee" stroke="none" font-family="Arial" font-size="24px" font-style="normal" font-weight="normal" text-decoration="none" x="0" y="180">UNREGISTERED</text><text fill="#eeeeee" stroke="none" font-family="Arial" font-size="24px" font-style="normal" font-weight="normal" text-decoration="none" x="0" y="210">UNREGISTERED</text><text fill="#eeeeee" stroke="none" font-family="Arial" font-size="24px" font-style="normal" font-weight="normal" text-decoration="none" x="0" y="240">UNREGISTERED</text><text fill="#eeeeee" stroke="none" font-family="Arial" font-size="24px" font-style="normal" font-weight="normal" text-decoration="none" x="0" y="270">UNREGISTERED</text><text fill="#eeeeee" stroke="none" font-family="Arial" font-size="24px" font-style="normal" font-weight="normal" text-decoration="none" x="0" y="300">UNREGISTERED</text><text fill="#eeeeee" stroke="none" font-family="Arial" font-size="24px" font-style="normal" font-weight="normal" text-decoration="none" x="0" y="330">UNREGISTERED</text><text fill="#eeeeee" stroke="none" font-family="Arial" font-size="24px" font-style="normal" font-weight="normal" text-decoration="none" x="0" y="360">UNREGISTERED</text><text fill="#eeeeee" stroke="none" font-family="Arial" font-size="24px" font-style="normal" font-weight="normal" text-decoration="none" x="0" y="390">UNREGISTERED</text><text fill="#eeeeee" stroke="none" font-family="Arial" font-size="24px" font-style="normal" font-weight="normal" text-decoration="none" x="0" y="420">UNREGISTERED</text><text fill="#eeeeee" stroke="none" font-family="Arial" font-size="24px" font-style="normal" font-weight="normal" text-decoration="none" x="0" y="450">UNREGISTERED</text><text fill="#eeeeee" stroke="none" font-family="Arial" font-size="24px" font-style="normal" font-weight="normal" text-decoration="none" x="0" y="480">UNREGISTERED</text><text fill="#eeeeee" stroke="none" font-family="Arial" font-size="24px" font-style="normal" font-weight="normal" text-decoration="none" x="0" y="510">UNREGISTERED</text><text fill="#eeeeee" stroke="none" font-family="Arial" font-size="24px" font-style="normal" font-weight="normal" text-decoration="none" x="200" y="0">UNREGISTERED</text><text fill="#eeeeee" stroke="none" font-family="Arial" font-size="24px" font-style="normal" font-weight="normal" text-decoration="none" x="200" y="30">UNREGISTERED</text><text fill="#eeeeee" stroke="none" font-family="Arial" font-size="24px" font-style="normal" font-weight="normal" text-decoration="none" x="200" y="60">UNREGISTERED</text><text fill="#eeeeee" stroke="none" font-family="Arial" font-size="24px" font-style="normal" font-weight="normal" text-decoration="none" x="200" y="90">UNREGISTERED</text><text fill="#eeeeee" stroke="none" font-family="Arial" font-size="24px" font-style="normal" font-weight="normal" text-decoration="none" x="200" y="120">UNREGISTERED</text><text fill="#eeeeee" stroke="none" font-family="Arial" font-size="24px" font-style="normal" font-weight="normal" text-decoration="none" x="200" y="150">UNREGISTERED</text><text fill="#eeeeee" stroke="none" font-family="Arial" font-size="24px" font-style="normal" font-weight="normal" text-decoration="none" x="200" y="180">UNREGISTERED</text><text fill="#eeeeee" stroke="none" font-family="Arial" font-size="24px" font-style="normal" font-weight="normal" text-decoration="none" x="200" y="210">UNREGISTERED</text><text fill="#eeeeee" stroke="none" font-family="Arial" font-size="24px" font-style="normal" font-weight="normal" text-decoration="none" x="200" y="240">UNREGISTERED</text><text fill="#eeeeee" stroke="none" font-family="Arial" font-size="24px" font-style="normal" font-weight="normal" text-decoration="none" x="200" y="270">UNREGISTERED</text><text fill="#eeeeee" stroke="none" font-family="Arial" font-size="24px" font-style="normal" font-weight="normal" text-decoration="none" x="200" y="300">UNREGISTERED</text><text fill="#eeeeee" stroke="none" font-family="Arial" font-size="24px" font-style="normal" font-weight="normal" text-decoration="none" x="200" y="330">UNREGISTERED</text><text fill="#eeeeee" stroke="none" font-family="Arial" font-size="24px" font-style="normal" font-weight="normal" text-decoration="none" x="200" y="360">UNREGISTERED</text><text fill="#eeeeee" stroke="none" font-family="Arial" font-size="24px" font-style="normal" font-weight="normal" text-decoration="none" x="200" y="390">UNREGISTERED</text><text fill="#eeeeee" stroke="none" font-family="Arial" font-size="24px" font-style="normal" font-weight="normal" text-decoration="none" x="200" y="420">UNREGISTERED</text><text fill="#eeeeee" stroke="none" font-family="Arial" font-size="24px" font-style="normal" font-weight="normal" text-decoration="none" x="200" y="450">UNREGISTERED</text><text fill="#eeeeee" stroke="none" font-family="Arial" font-size="24px" font-style="normal" font-weight="normal" text-decoration="none" x="200" y="480">UNREGISTERED</text><text fill="#eeeeee" stroke="none" font-family="Arial" font-size="24px" font-style="normal" font-weight="normal" text-decoration="none" x="200" y="510">UNREGISTERED</text><text fill="#eeeeee" stroke="none" font-family="Arial" font-size="24px" font-style="normal" font-weight="normal" text-decoration="none" x="400" y="0">UNREGISTERED</text><text fill="#eeeeee" stroke="none" font-family="Arial" font-size="24px" font-style="normal" font-weight="normal" text-decoration="none" x="400" y="30">UNREGISTERED</text><text fill="#eeeeee" stroke="none" font-family="Arial" font-size="24px" font-style="normal" font-weight="normal" text-decoration="none" x="400" y="60">UNREGISTERED</text><text fill="#eeeeee" stroke="none" font-family="Arial" font-size="24px" font-style="normal" font-weight="normal" text-decoration="none" x="400" y="90">UNREGISTERED</text><text fill="#eeeeee" stroke="none" font-family="Arial" font-size="24px" font-style="normal" font-weight="normal" text-decoration="none" x="400" y="120">UNREGISTERED</text><text fill="#eeeeee" stroke="none" font-family="Arial" font-size="24px" font-style="normal" font-weight="normal" text-decoration="none" x="400" y="150">UNREGISTERED</text><text fill="#eeeeee" stroke="none" font-family="Arial" font-size="24px" font-style="normal" font-weight="normal" text-decoration="none" x="400" y="180">UNREGISTERED</text><text fill="#eeeeee" stroke="none" font-family="Arial" font-size="24px" font-style="normal" font-weight="normal" text-decoration="none" x="400" y="210">UNREGISTERED</text><text fill="#eeeeee" stroke="none" font-family="Arial" font-size="24px" font-style="normal" font-weight="normal" text-decoration="none" x="400" y="240">UNREGISTERED</text><text fill="#eeeeee" stroke="none" font-family="Arial" font-size="24px" font-style="normal" font-weight="normal" text-decoration="none" x="400" y="270">UNREGISTERED</text><text fill="#eeeeee" stroke="none" font-family="Arial" font-size="24px" font-style="normal" font-weight="normal" text-decoration="none" x="400" y="300">UNREGISTERED</text><text fill="#eeeeee" stroke="none" font-family="Arial" font-size="24px" font-style="normal" font-weight="normal" text-decoration="none" x="400" y="330">UNREGISTERED</text><text fill="#eeeeee" stroke="none" font-family="Arial" font-size="24px" font-style="normal" font-weight="normal" text-decoration="none" x="400" y="360">UNREGISTERED</text><text fill="#eeeeee" stroke="none" font-family="Arial" font-size="24px" font-style="normal" font-weight="normal" text-decoration="none" x="400" y="390">UNREGISTERED</text><text fill="#eeeeee" stroke="none" font-family="Arial" font-size="24px" font-style="normal" font-weight="normal" text-decoration="none" x="400" y="420">UNREGISTERED</text><text fill="#eeeeee" stroke="none" font-family="Arial" font-size="24px" font-style="normal" font-weight="normal" text-decoration="none" x="400" y="450">UNREGISTERED</text><text fill="#eeeeee" stroke="none" font-family="Arial" font-size="24px" font-style="normal" font-weight="normal" text-decoration="none" x="400" y="480">UNREGISTERED</text><text fill="#eeeeee" stroke="none" font-family="Arial" font-size="24px" font-style="normal" font-weight="normal" text-decoration="none" x="400" y="510">UNREGISTERED</text><text fill="#eeeeee" stroke="none" font-family="Arial" font-size="24px" font-style="normal" font-weight="normal" text-decoration="none" x="600" y="0">UNREGISTERED</text><text fill="#eeeeee" stroke="none" font-family="Arial" font-size="24px" font-style="normal" font-weight="normal" text-decoration="none" x="600" y="30">UNREGISTERED</text><text fill="#eeeeee" stroke="none" font-family="Arial" font-size="24px" font-style="normal" font-weight="normal" text-decoration="none" x="600" y="60">UNREGISTERED</text><text fill="#eeeeee" stroke="none" font-family="Arial" font-size="24px" font-style="normal" font-weight="normal" text-decoration="none" x="600" y="90">UNREGISTERED</text><text fill="#eeeeee" stroke="none" font-family="Arial" font-size="24px" font-style="normal" font-weight="normal" text-decoration="none" x="600" y="120">UNREGISTERED</text><text fill="#eeeeee" stroke="none" font-family="Arial" font-size="24px" font-style="normal" font-weight="normal" text-decoration="none" x="600" y="150">UNREGISTERED</text><text fill="#eeeeee" stroke="none" font-family="Arial" font-size="24px" font-style="normal" font-weight="normal" text-decoration="none" x="600" y="180">UNREGISTERED</text><text fill="#eeeeee" stroke="none" font-family="Arial" font-size="24px" font-style="normal" font-weight="normal" text-decoration="none" x="600" y="210">UNREGISTERED</text><text fill="#eeeeee" stroke="none" font-family="Arial" font-size="24px" font-style="normal" font-weight="normal" text-decoration="none" x="600" y="240">UNREGISTERED</text><text fill="#eeeeee" stroke="none" font-family="Arial" font-size="24px" font-style="normal" font-weight="normal" text-decoration="none" x="600" y="270">UNREGISTERED</text><text fill="#eeeeee" stroke="none" font-family="Arial" font-size="24px" font-style="normal" font-weight="normal" text-decoration="none" x="600" y="300">UNREGISTERED</text><text fill="#eeeeee" stroke="none" font-family="Arial" font-size="24px" font-style="normal" font-weight="normal" text-decoration="none" x="600" y="330">UNREGISTERED</text><text fill="#eeeeee" stroke="none" font-family="Arial" font-size="24px" font-style="normal" font-weight="normal" text-decoration="none" x="600" y="360">UNREGISTERED</text><text fill="#eeeeee" stroke="none" font-family="Arial" font-size="24px" font-style="normal" font-weight="normal" text-decoration="none" x="600" y="390">UNREGISTERED</text><text fill="#eeeeee" stroke="none" font-family="Arial" font-size="24px" font-style="normal" font-weight="normal" text-decoration="none" x="600" y="420">UNREGISTERED</text><text fill="#eeeeee" stroke="none" font-family="Arial" font-size="24px" font-style="normal" font-weight="normal" text-decoration="none" x="600" y="450">UNREGISTERED</text><text fill="#eeeeee" stroke="none" font-family="Arial" font-size="24px" font-style="normal" font-weight="normal" text-decoration="none" x="600" y="480">UNREGISTERED</text><text fill="#eeeeee" stroke="none" font-family="Arial" font-size="24px" font-style="normal" font-weight="normal" text-decoration="none" x="600" y="510">UNREGISTERED</text><g transform="translate(-38,-198) scale(1,1)"><rect fill="#C0C0C0" stroke="none" x="55" y="215" width="102" height="15" opacity="0.2"/></g><g transform="translate(-38,-198) scale(1,1)"><rect fill="#C0C0C0" stroke="none" x="55" y="229" width="255" height="137" opacity="0.2"/></g><g transform="translate(-38,-198) scale(1,1)"><rect fill="#ffffff" stroke="none" x="48" y="223" width="255" height="136"/></g><g transform="translate(-38,-198) scale(1,1)"><path fill="none" stroke="#000000" d="M 48 223 L 303 223 L 303 359 L 48 359 L 48 223 Z Z" stroke-miterlimit="10"/></g><g transform="translate(-38,-198) scale(1,1)"><rect fill="#ffffff" stroke="none" x="48" y="208" width="102" height="15"/></g><g transform="translate(-38,-198) scale(1,1)"><path fill="none" stroke="#000000" d="M 48 208 L 150 208 L 150 223 L 48 223 L 48 208 Z Z" stroke-miterlimit="10"/></g><g transform="translate(-38,-198) scale(1,1)"><rect fill="#ffffff" stroke="none" x="48" y="222" width="255" height="137"/></g><g transform="translate(-38,-198) scale(1,1)"><path fill="none" stroke="#000000" d="M 48 222 L 303 222 L 303 359 L 48 359 L 48 222 Z Z" stroke-miterlimit="10"/></g><g transform="translate(-38,-198) scale(1,1)"><g><path fill="none" stroke="none"/><text fill="#000000" stroke="none" font-family="Arial" font-size="13px" font-style="normal" font-weight="bold" text-decoration="none" x="140.82275390625" y="242.5">Univers_RE</text></g></g><g transform="translate(-38,-198) scale(1,1)"><rect fill="#C0C0C0" stroke="none" x="63" y="415" width="102" height="15" opacity="0.2"/></g><g transform="translate(-38,-198) scale(1,1)"><rect fill="#C0C0C0" stroke="none" x="63" y="429" width="255" height="145" opacity="0.2"/></g><g transform="translate(-38,-198) scale(1,1)"><rect fill="#ffffff" stroke="none" x="56" y="423" width="255" height="144"/></g><g transform="translate(-38,-198) scale(1,1)"><path fill="none" stroke="#000000" d="M 56 423 L 311 423 L 311 567 L 56 567 L 56 423 Z Z" stroke-miterlimit="10"/></g><g transform="translate(-38,-198) scale(1,1)"><rect fill="#ffffff" stroke="none" x="56" y="408" width="102" height="15"/></g><g transform="translate(-38,-198) scale(1,1)"><path fill="none" stroke="#000000" d="M 56 408 L 158 408 L 158 423 L 56 423 L 56 408 Z Z" stroke-miterlimit="10"/></g><g transform="translate(-38,-198) scale(1,1)"><rect fill="#ffffff" stroke="none" x="56" y="422" width="255" height="145"/></g><g transform="translate(-38,-198) scale(1,1)"><path fill="none" stroke="#000000" d="M 56 422 L 311 422 L 311 567 L 56 567 L 56 422 Z Z" stroke-miterlimit="10"/></g><g transform="translate(-38,-198) scale(1,1)"><g><path fill="none" stroke="none"/><text fill="#000000" stroke="none" font-family="Arial" font-size="13px" font-style="normal" font-weight="bold" text-decoration="none" x="162.181396484375" y="442.5">Modele</text></g></g><g transform="translate(-38,-198) scale(1,1)"><rect fill="#C0C0C0" stroke="none" x="383" y="423" width="108.39999999999998" height="15" opacity="0.2"/></g><g transform="translate(-38,-198) scale(1,1)"><rect fill="#C0C0C0" stroke="none" x="383" y="437" width="271" height="129" opacity="0.2"/></g><g transform="translate(-38,-198) scale(1,1)"><rect fill="#ffffff" stroke="none" x="376" y="431" width="271" height="128"/></g><g transform="translate(-38,-198) scale(1,1)"><path fill="none" stroke="#000000" d="M 376 431 L 647 431 L 647 559 L 376 559 L 376 431 Z Z" stroke-miterlimit="10"/></g><g transform="translate(-38,-198) scale(1,1)"><rect fill="#ffffff" stroke="none" x="376" y="416" width="108.39999999999998" height="15"/></g><g transform="translate(-38,-198) scale(1,1)"><path fill="none" stroke="#000000" d="M 376 416 L 484.4 416 L 484.4 431 L 376 431 L 376 416 Z Z" stroke-miterlimit="10"/></g><g transform="translate(-38,-198) scale(1,1)"><rect fill="#ffffff" stroke="none" x="376" y="430" width="271" height="129"/></g><g transform="translate(-38,-198) scale(1,1)"><path fill="none" stroke="#000000" d="M 376 430 L 647 430 L 647 559 L 376 559 L 376 430 Z Z" stroke-miterlimit="10"/></g><g transform="translate(-38,-198) scale(1,1)"><g><path fill="none" stroke="none"/><text fill="#000000" stroke="none" font-family="Arial" font-size="13px" font-style="normal" font-weight="bold" text-decoration="none" x="499.5791015625" y="450.5">Test</text></g></g><g transform="translate(-38,-198) scale(1,1)"><rect fill="#C0C0C0" stroke="none" x="423" y="223" width="89.20000000000005" height="15" opacity="0.2"/></g><g transform="translate(-38,-198) scale(1,1)"><rect fill="#C0C0C0" stroke="none" x="423" y="237" width="223" height="130" opacity="0.2"/></g><g transform="translate(-38,-198) scale(1,1)"><rect fill="#ffffff" stroke="none" x="416" y="231" width="223" height="129"/></g><g transform="translate(-38,-198) scale(1,1)"><path fill="none" stroke="#000000" d="M 416 231 L 639 231 L 639 360 L 416 360 L 416 231 Z Z" stroke-miterlimit="10"/></g><g transform="translate(-38,-198) scale(1,1)"><rect fill="#ffffff" stroke="none" x="416" y="216" width="89.19999999999999" height="15"/></g><g transform="translate(-38,-198) scale(1,1)"><path fill="none" stroke="#000000" d="M 416 216 L 505.2 216 L 505.2 231 L 416 231 L 416 216 Z Z" stroke-miterlimit="10"/></g><g transform="translate(-38,-198) scale(1,1)"><rect fill="#ffffff" stroke="none" x="416" y="230" width="223" height="130"/></g><g transform="translate(-38,-198) scale(1,1)"><path fill="none" stroke="#000000" d="M 416 230 L 639 230 L 639 360 L 416 360 L 416 230 Z Z" stroke-miterlimit="10"/></g><g transform="translate(-38,-198) scale(1,1)"><g><path fill="none" stroke="none"/><text fill="#000000" stroke="none" font-family="Arial" font-size="13px" font-style="normal" font-weight="bold" text-decoration="none" x="493.181396484375" y="250.5">Ressources</text></g></g><g transform="translate(-38,-198) scale(1,1)"><path fill="none" stroke="#000000" d="M 304 285 L 415 286" stroke-miterlimit="10" stroke-dasharray="3"/></g><g transform="translate(-38,-198) scale(1,1)"><path fill="none" stroke="#000000" d="M 404.7998154855184 290.1177950253176 L 415 286 L 404.8756595745177 281.6991011463944" stroke-miterlimit="10"/></g><g transform="translate(-38,-198) scale(1,1)"><path fill="none" stroke="#000000" d="M 178 360 L 180 407" stroke-miterlimit="10" stroke-dasharray="3"/></g><g transform="translate(-38,-198) scale(1,1)"><path fill="none" stroke="#000000" d="M 175.36222507696067 397.0254802740569 L 180 407 L 183.77364843959532 396.66754736500866" stroke-miterlimit="10"/></g><g transform="translate(-38,-198) scale(1,1)"><path fill="none" stroke="#000000" d="M 375 487 L 312 487" stroke-miterlimit="10" stroke-dasharray="3"/></g><g transform="translate(-38,-198) scale(1,1)"><path fill="none" stroke="#000000" d="M 322.16267485762415 482.790482243984 L 312 487 L 322.16267485762415 491.209517756016" stroke-miterlimit="10"/></g><g transform="translate(-38,-198) scale(1,1)"><rect fill="#C0C0C0" stroke="none" x="447" y="487" width="54" height="15" opacity="0.2"/></g><g transform="translate(-38,-198) scale(1,1)"><rect fill="#C0C0C0" stroke="none" x="447" y="501" width="135" height="33" opacity="0.2"/></g><g transform="translate(-38,-198) scale(1,1)"><rect fill="#ffffff" stroke="none" x="440" y="495" width="135" height="32"/></g><g transform="translate(-38,-198) scale(1,1)"><path fill="none" stroke="#000000" d="M 440 495 L 575 495 L 575 527 L 440 527 L 440 495 Z Z" stroke-miterlimit="10"/></g><g transform="translate(-38,-198) scale(1,1)"><rect fill="#ffffff" stroke="none" x="440" y="480" width="54" height="15"/></g><g transform="translate(-38,-198) scale(1,1)"><path fill="none" stroke="#000000" d="M 440 480 L 494 480 L 494 495 L 440 495 L 440 480 Z Z" stroke-miterlimit="10"/></g><g transform="translate(-38,-198) scale(1,1)"><rect fill="#ffffff" stroke="none" x="440" y="494" width="135" height="33"/></g><g transform="translate(-38,-198) scale(1,1)"><path fill="none" stroke="#000000" d="M 440 494 L 575 494 L 575 527 L 440 527 L 440 494 Z Z" stroke-miterlimit="10"/></g><g transform="translate(-38,-198) scale(1,1)"><path fill="none" stroke="#000000" d="M 485 483 L 479 490 L 491 490 L 485 483" stroke-miterlimit="10"/></g><g transform="translate(-38,-198) scale(1,1)"><g><path fill="none" stroke="none"/><text fill="#000000" stroke="none" font-family="Arial" font-size="13px" font-style="normal" font-weight="bold" text-decoration="none" x="473.54638671875" y="514.5">Programme</text></g></g><g transform="translate(-38,-198) scale(1,1)"><rect fill="#C0C0C0" stroke="none" x="119" y="479" width="44.400000000000006" height="15" opacity="0.2"/></g><g transform="translate(-38,-198) scale(1,1)"><rect fill="#C0C0C0" stroke="none" x="119" y="493" width="111" height="33" opacity="0.2"/></g><g transform="translate(-38,-198) scale(1,1)"><rect fill="#ffffff" stroke="none" x="112" y="487" width="111" height="32"/></g><g transform="translate(-38,-198) scale(1,1)"><path fill="none" stroke="#000000" d="M 112 487 L 223 487 L 223 519 L 112 519 L 112 487 Z Z" stroke-miterlimit="10"/></g><g transform="translate(-38,-198) scale(1,1)"><rect fill="#ffffff" stroke="none" x="112" y="472" width="44.400000000000006" height="15"/></g><g transform="translate(-38,-198) scale(1,1)"><path fill="none" stroke="#000000" d="M 112 472 L 156.4 472 L 156.4 487 L 112 487 L 112 472 Z Z" stroke-miterlimit="10"/></g><g transform="translate(-38,-198) scale(1,1)"><rect fill="#ffffff" stroke="none" x="112" y="486" width="111" height="33"/></g><g transform="translate(-38,-198) scale(1,1)"><path fill="none" stroke="#000000" d="M 112 486 L 223 486 L 223 519 L 112 519 L 112 486 Z Z" stroke-miterlimit="10"/></g><g transform="translate(-38,-198) scale(1,1)"><path fill="none" stroke="#000000" d="M 147.4 475 L 141.4 482 L 153.4 482 L 147.4 475" stroke-miterlimit="10"/></g><g transform="translate(-38,-198) scale(1,1)"><g><path fill="none" stroke="none"/><text fill="#000000" stroke="none" font-family="Arial" font-size="13px" font-style="normal" font-weight="bold" text-decoration="none" x="141.845947265625" y="506.5">Manager</text></g></g><g transform="translate(-38,-198) scale(1,1)"><path fill="#ffffff" stroke="none" d="M 256 584 L 428 584 L 438 594 L 438 718 L 256 718 L 256 584"/></g><g transform="translate(-38,-198) scale(1,1)"><path fill="none" stroke="#000000" d="M 256 584 L 428 584 L 438 594 L 438 718 L 256 718 L 256 584 L 256 584" stroke-miterlimit="10"/></g><g transform="translate(-38,-198) scale(1,1)"><path fill="none" stroke="#000000" d="M 428 584 L 428 594 L 438 594 L 428 584" stroke-miterlimit="10"/></g><g transform="translate(-38,-198) scale(1,1)"><g><path fill="none" stroke="none"/><text fill="#000000" stroke="none" font-family="Arial" font-size="13px" font-style="normal" font-weight="normal" text-decoration="none" x="261" y="602">Le package Univers_RE</text><text fill="#000000" stroke="none" font-family="Arial" font-size="13px" font-style="normal" font-weight="normal" text-decoration="none" x="261" y="615">contient les vues, le package</text><text fill="#000000" stroke="none" font-family="Arial" font-size="13px" font-style="normal" font-weight="normal" text-decoration="none" x="261" y="628">Modele contient les classes</text><text fill="#000000" stroke="none" font-family="Arial" font-size="13px" font-style="normal" font-weight="normal" text-decoration="none" x="261" y="641">et le code CSharp.</text></g></g><g transform="translate(-38,-198) scale(1,1)"><g><path fill="none" stroke="none"/><text fill="#000000" stroke="none" font-family="Arial" font-size="13px" font-style="normal" font-weight="normal" text-decoration="none" x="261" y="656">Le package Test est là pour</text><text fill="#000000" stroke="none" font-family="Arial" font-size="13px" font-style="normal" font-weight="normal" text-decoration="none" x="261" y="669">débeuger le code CSharp</text></g></g></g></svg>